<?xml version="1.0" encoding="UTF-8" standalone="no"?><!DOCTYPE svg PUBLIC "-//W3C//DTD SVG 1.1//EN" "http://www.w3.org/Graphics/SVG/1.1/DTD/svg11.dtd"><svg width="100%" height="100%" viewBox="0 0 300 300" version="1.1" xmlns="http://www.w3.org/2000/svg" xmlns:xlink="http://www.w3.org/1999/xlink" xml:space="preserve" xmlns:serif="http://www.serif.com/" style="fill-rule:evenodd;clip-rule:evenodd;stroke-linejoin:round;stroke-miterlimit:2;"><path d="M148.375,104.652c-0.162,-0.065 -0.275,-0.081 -0.356,-0.146c-0.13,-0.097 -0.26,-0.195 -0.374,-0.308c-2.401,-2.336 -4.786,-4.689 -7.187,-7.041c-0.519,-0.519 -0.989,-1.071 -1.492,-1.606c-0.536,-0.536 -0.649,-0.536 -1.217,-0.065c-0.211,0.178 -0.389,0.373 -0.584,0.568c-2.142,2.141 -4.299,4.266 -6.441,6.408c-0.535,0.535 -1.038,1.103 -1.574,1.622c-0.568,0.568 -0.86,0.568 -1.444,0.017c-0.454,-0.422 -0.843,-0.909 -1.298,-1.347c-3.731,-3.683 -7.479,-7.349 -11.194,-11.048c-3.05,-3.034 -6.068,-6.084 -9.102,-9.134c-0.145,-0.146 -0.308,-0.309 -0.437,-0.471c-0.26,-0.324 -0.244,-0.649 0.016,-0.957c0.146,-0.162 0.292,-0.325 0.438,-0.471c7.106,-7.106 14.228,-14.228 21.334,-21.334c0.016,-0.016 0.032,-0.032 0.065,-0.065c0.811,-0.795 0.99,-0.811 1.768,-0.016c2.564,2.596 5.143,5.175 7.707,7.771c0.292,0.292 0.567,0.584 0.876,0.844c0.438,0.357 0.567,0.341 0.957,-0.049c1.054,-1.054 2.093,-2.109 3.147,-3.163c1.801,-1.801 3.586,-3.602 5.386,-5.387c0.877,-0.876 0.942,-0.86 1.801,0c2.84,2.856 5.695,5.711 8.534,8.55c0.097,0.098 0.195,0.195 0.292,0.276c0.227,0.211 0.389,0.162 0.617,-0.065c0.989,-1.038 1.995,-2.06 3.001,-3.066c1.882,-1.915 3.748,-3.813 5.63,-5.727c0.097,-0.097 0.195,-0.195 0.292,-0.292c0.503,-0.454 0.649,-0.487 1.151,-0c1.444,1.395 2.856,2.79 4.284,4.202c1.686,1.671 3.375,3.358 5.045,5.029c1.087,1.087 2.142,2.207 3.228,3.294c3.018,3.017 6.036,6.035 9.07,9.052c0.129,0.13 0.275,0.26 0.406,0.406c0.519,0.552 0.535,0.746 -0,1.282c-1.963,1.979 -3.926,3.942 -5.889,5.921c-1.996,1.996 -3.976,3.975 -5.972,5.955c-2.79,2.758 -5.581,5.499 -8.371,8.257c-0.519,0.52 -1.005,1.071 -1.508,1.574c-0.762,0.763 -0.974,0.746 -1.703,-0.016c-2.823,-2.872 -5.663,-5.727 -8.518,-8.566c-0.536,-0.536 -0.519,-0.503 -1.055,0.032c-2.19,2.207 -4.397,4.397 -6.603,6.587c-0.681,0.681 -1.363,1.395 -2.044,2.077c-0.244,0.275 -0.487,0.454 -0.682,0.616Zm-13.53,-32.934c-0.211,-0.26 -0.357,-0.503 -0.568,-0.698c-1.72,-1.719 -3.423,-3.439 -5.159,-5.159c-0.6,-0.6 -0.844,-0.6 -1.477,0.033c-2.514,2.53 -5.029,5.061 -7.544,7.576c-2.449,2.45 -4.899,4.883 -7.349,7.317c-0.762,0.763 -0.762,0.909 0,1.704c1.071,1.103 2.142,2.222 3.229,3.309c1.2,1.201 2.449,2.369 3.65,3.569c1.314,1.314 2.596,2.677 3.91,3.991c1.233,1.25 2.482,2.483 3.731,3.716c0.195,0.194 0.373,0.389 0.568,0.567c0.487,0.422 0.682,0.422 1.184,-0.032c0.098,-0.097 0.195,-0.195 0.276,-0.292c1.574,-1.606 3.132,-3.212 4.721,-4.802c0.958,-0.957 0.974,-0.957 0.033,-1.915c-2.677,-2.709 -5.37,-5.418 -8.047,-8.111c-0.13,-0.13 -0.26,-0.276 -0.39,-0.406c-0.243,-0.292 -0.259,-0.584 0,-0.876c0.098,-0.13 0.211,-0.244 0.325,-0.357c1.752,-1.768 3.488,-3.537 5.24,-5.305c1.055,-1.071 2.126,-2.158 3.18,-3.245c0.162,-0.146 0.292,-0.341 0.487,-0.584Zm49.612,9.929c-0.26,-0.308 -0.455,-0.584 -0.698,-0.828c-2.773,-2.774 -5.532,-5.532 -8.306,-8.306c-2.158,-2.158 -4.316,-4.316 -6.473,-6.473c-0.843,-0.844 -0.941,-0.828 -1.736,-0.017c-1.591,1.607 -3.197,3.213 -4.803,4.819c-0.892,0.892 -0.892,0.876 0.033,1.817c2.628,2.644 5.272,5.273 7.9,7.917c0.179,0.178 0.357,0.341 0.52,0.519c0.438,0.487 0.454,0.682 -0,1.168c-0.649,0.698 -1.299,1.363 -1.98,2.028c-2.254,2.255 -4.526,4.478 -6.781,6.733c-0.535,0.536 -0.551,0.633 0,1.184c1.785,1.818 3.569,3.618 5.354,5.419c0.552,0.552 0.681,0.536 1.265,-0.016c0.098,-0.097 0.195,-0.195 0.293,-0.292c1.508,-1.509 3.017,-3.018 4.526,-4.526c1.541,-1.542 3.099,-3.099 4.64,-4.657c1.93,-1.93 3.845,-3.877 5.76,-5.808c0.162,-0.178 0.291,-0.422 0.486,-0.681Zm-36.147,16.467c0.26,-0.211 0.52,-0.406 0.731,-0.633c1.719,-1.752 3.439,-3.504 5.175,-5.256c0.552,-0.552 0.552,-0.617 0.065,-1.185c-0.114,-0.129 -0.227,-0.243 -0.341,-0.357c-1.687,-1.703 -3.391,-3.407 -5.078,-5.11c-0.535,-0.535 -0.6,-0.535 -1.168,0.032c-1.704,1.704 -3.407,3.408 -5.094,5.111c-0.179,0.178 -0.325,0.357 -0.487,0.535c-0.227,0.244 -0.211,0.487 0,0.714c0.146,0.162 0.292,0.308 0.454,0.471c1.266,1.265 2.515,2.514 3.78,3.78c0.471,0.487 0.925,0.973 1.412,1.46c0.13,0.146 0.308,0.26 0.551,0.438Zm16.273,-16.435c-0.179,-0.243 -0.293,-0.454 -0.455,-0.616c-0.453,-0.471 -0.924,-0.909 -1.378,-1.379c-1.347,-1.363 -2.677,-2.742 -4.024,-4.121c-0.535,-0.535 -0.584,-0.519 -1.071,0.016c-0.681,0.73 -1.346,1.476 -2.06,2.174c-1.103,1.103 -2.239,2.19 -3.358,3.294c-0.503,0.503 -0.503,0.73 -0,1.233c1.833,1.865 3.682,3.731 5.548,5.581c0.438,0.438 0.503,0.421 0.909,-0.017c0.275,-0.292 0.568,-0.584 0.843,-0.876c1.509,-1.541 3.034,-3.082 4.543,-4.64c0.179,-0.178 0.308,-0.405 0.503,-0.649Zm-26.266,-6.522c-0.227,0.211 -0.438,0.373 -0.617,0.552c-1.72,1.72 -3.439,3.456 -5.143,5.175c-0.681,0.682 -0.681,0.828 -0.016,1.525c1.444,1.461 2.888,2.937 4.332,4.397c0.357,0.357 0.746,0.714 1.103,1.071c0.292,0.292 0.519,0.259 0.811,-0.033c1.866,-1.882 3.748,-3.747 5.63,-5.613c0.487,-0.487 0.487,-0.633 -0.033,-1.12c-0.503,-0.486 -1.022,-0.973 -1.525,-1.46c-1.314,-1.314 -2.628,-2.644 -3.958,-3.958c-0.162,-0.195 -0.357,-0.341 -0.584,-0.536Zm9.993,3.018c0.195,-0.162 0.39,-0.292 0.552,-0.454c1.72,-1.72 3.423,-3.44 5.143,-5.159c0.114,-0.114 0.227,-0.228 0.341,-0.357c0.357,-0.422 0.357,-0.568 -0.016,-0.974c-0.406,-0.438 -0.828,-0.843 -1.25,-1.265c-1.427,-1.444 -2.839,-2.872 -4.267,-4.316c-0.438,-0.438 -0.551,-0.438 -1.005,-0.032c-0.163,0.146 -0.309,0.308 -0.455,0.454c-1.59,1.606 -3.196,3.212 -4.786,4.819c-0.811,0.811 -0.811,0.811 0,1.638c1.542,1.558 3.083,3.099 4.624,4.64c0.227,0.227 0.454,0.471 0.682,0.682c0.113,0.113 0.243,0.178 0.437,0.324Z" style="fill:#fff;fill-rule:nonzero;"/><path d="M123.147,126.603l0,-7.788c0,-0.535 0.065,-1.07 0.065,-1.622c0.017,-0.438 0.228,-0.633 0.649,-0.633c0.649,0 1.298,-0.016 1.947,0c0.373,0 0.682,0.081 0.714,0.568c0.016,0.341 0.26,0.357 0.519,0.211c0.114,-0.065 0.227,-0.146 0.341,-0.227c1.671,-1.298 3.991,-1.428 5.84,-0.292c1.996,1.217 3.132,3.05 3.44,5.338c0.243,1.784 0.195,3.553 -0.568,5.256c-0.714,1.622 -1.882,2.807 -3.504,3.407c-1.688,0.633 -3.391,0.665 -4.884,-0.616c-0.065,-0.049 -0.129,-0.098 -0.194,-0.146c-0.422,-0.276 -0.584,-0.211 -0.584,0.292c-0.017,0.762 -0,1.508 -0,2.271c-0,1.136 -0,2.271 -0.017,3.407c-0.016,0.665 -0.097,0.762 -0.746,0.779c-0.779,0.032 -1.574,-0 -2.352,-0c-0.438,-0 -0.649,-0.227 -0.649,-0.649c-0.017,-0.357 -0.033,-0.698 -0.033,-1.055c0.016,-2.823 0.016,-5.662 0.016,-8.501Zm3.197,-2.969c-0.017,0.941 0.097,1.849 0.567,2.677c0.698,1.233 1.769,1.752 3.18,1.638c1.363,-0.113 2.272,-0.827 2.726,-2.076c0.535,-1.477 0.503,-2.985 -0.049,-4.445c-0.487,-1.298 -1.525,-1.964 -2.871,-2.029c-1.315,-0.064 -2.353,0.471 -3.002,1.688c-0.438,0.795 -0.584,1.655 -0.551,2.547Z" style="fill:#fff;fill-rule:nonzero;"/><path d="M93.069,121.282l-0,-8.599c-0,-0.6 0.065,-0.698 0.681,-0.763c0.276,-0.032 0.535,-0.032 0.811,-0.032l9.329,-0c1.184,0.016 1.2,0.049 1.168,1.249c-0.016,0.438 0.016,0.86 0.016,1.298c-0.016,0.665 -0.13,0.811 -0.811,0.827c-1.217,0.017 -2.434,0 -3.65,0c-1.055,0 -2.109,-0.016 -3.164,0c-0.762,0 -0.827,0.065 -0.827,0.844c-0.017,0.86 -0.017,1.736 -0,2.596c0.016,0.73 0.065,0.779 0.795,0.779l5.597,-0c0.211,-0 0.438,-0 0.649,0.016c0.34,0.032 0.551,0.227 0.568,0.568c0.016,0.681 0.048,1.346 0.016,2.028c-0.033,0.503 -0.211,0.649 -0.747,0.649c-0.681,0.016 -1.346,-0.017 -2.027,-0.017c-1.331,0 -2.645,0 -3.975,0.017c-0.714,-0 -0.844,0.129 -0.86,0.86c-0.016,1.022 -0.016,2.06 -0,3.082c0.016,0.6 0.13,0.698 0.746,0.698c0.617,-0 1.233,-0.082 1.866,-0.082c1.671,0.017 3.342,0.049 5.029,0.098c0.584,0.016 0.763,0.178 0.795,0.795c0.033,0.616 0.016,1.249 -0.016,1.866c-0.049,0.762 -0.162,0.876 -0.941,0.876c-2.401,0.016 -4.818,0.016 -7.22,-0c-0.973,-0 -1.946,-0 -2.92,-0.017c-0.681,-0.016 -0.811,-0.146 -0.843,-0.811c-0.033,-0.843 -0.017,-1.671 -0.017,-2.514l0,-6.328c-0.016,0.017 -0.032,0.017 -0.048,0.017Z" style="fill:#fff;fill-rule:nonzero;"/><path d="M196.089,123.812c0.033,-1.492 0.228,-2.693 0.698,-3.828c0.957,-2.288 3.585,-4.365 6.815,-3.862c2.563,0.406 4.574,2.223 5.141,4.754c0.212,0.973 0.276,1.979 0.309,2.969c0.032,0.73 -0.162,0.811 -0.86,0.795c-2.596,-0.033 -5.191,-0.033 -7.77,-0.033c-0.698,0 -0.86,0.228 -0.731,0.925c0.374,1.801 1.46,2.563 3.342,2.417c1.103,-0.097 1.979,-0.649 2.694,-1.492c0.519,-0.6 0.519,-0.584 1.151,-0.097c0.292,0.227 0.6,0.47 0.893,0.713c0.81,0.682 0.843,0.99 0.114,1.785c-1.526,1.687 -3.44,2.401 -5.679,2.174c-2.742,-0.276 -5.354,-2.271 -5.905,-5.5c-0.114,-0.633 -0.162,-1.298 -0.212,-1.72Zm6.587,-1.882l0.569,0c0.615,0 1.232,0.033 1.849,0c0.471,-0.016 0.567,-0.162 0.486,-0.616c-0.032,-0.13 -0.065,-0.26 -0.113,-0.389c-0.455,-1.136 -1.688,-1.85 -3.082,-1.785c-1.217,0.049 -2.304,0.876 -2.661,2.012c-0.179,0.551 -0.05,0.746 0.536,0.762c0.794,0.033 1.605,0.016 2.416,0.016Z" style="fill:#fff;fill-rule:nonzero;"/><path d="M146.802,124.624c-1.331,-0 -2.645,-0.017 -3.975,-0c-0.86,0.016 -1.055,0.259 -0.844,1.103c0.39,1.59 1.509,2.336 3.18,2.255c0.99,-0.049 1.817,-0.471 2.515,-1.168c0.162,-0.179 0.341,-0.341 0.519,-0.519c0.243,-0.244 0.535,-0.26 0.795,-0.049c0.487,0.373 0.99,0.762 1.444,1.168c0.422,0.373 0.422,0.584 0.081,1.055c-0.827,1.151 -1.963,1.995 -3.31,2.352c-3.812,1.055 -7.43,-0.99 -8.371,-4.624c-0.454,-1.801 -0.454,-3.585 0.032,-5.37c0.811,-2.936 3.602,-5.483 7.544,-4.607c2.304,0.503 3.732,2.076 4.559,4.218c0.422,1.103 0.519,2.255 0.487,3.423c-0.016,0.665 -0.179,0.763 -0.86,0.763c-1.265,-0 -2.531,0.016 -3.796,-0c-0,0.016 -0,0.016 -0,-0Zm-1.72,-2.71c0.811,0 1.606,0.016 2.417,-0.016c0.487,-0.016 0.601,-0.211 0.487,-0.681c-0.032,-0.13 -0.081,-0.26 -0.146,-0.374c-0.519,-1.184 -1.541,-1.768 -3.018,-1.687c-1.2,0.049 -2.336,0.893 -2.693,1.98c-0.178,0.551 -0.065,0.762 0.519,0.778c0.812,0.033 1.623,0 2.434,0Z" style="fill:#fff;fill-rule:nonzero;"/><path d="M187.945,131.081c-1.833,-0.049 -3.44,-0.649 -4.721,-1.996c-0.616,-0.665 -1.071,-1.428 -1.266,-2.32c-0.145,-0.633 -0.064,-0.795 0.503,-0.973c0.488,-0.163 0.99,-0.26 1.493,-0.406c0.389,-0.113 0.682,0.016 0.877,0.373c0.178,0.309 0.372,0.601 0.534,0.909c0.455,0.811 1.153,1.265 2.061,1.427c0.876,0.163 1.719,0.033 2.531,-0.308c0.195,-0.081 0.389,-0.211 0.536,-0.357c0.567,-0.568 0.534,-1.2 -0.147,-1.622c-0.422,-0.276 -0.925,-0.454 -1.394,-0.617c-1.024,-0.356 -2.077,-0.632 -3.083,-1.005c-0.65,-0.244 -1.266,-0.601 -1.867,-0.958c-2.189,-1.265 -1.784,-4.104 -0.632,-5.37c0.779,-0.843 1.704,-1.395 2.84,-1.622c1.849,-0.373 3.602,-0.211 5.255,0.762c1.022,0.601 1.687,1.493 2.191,2.531c0.227,0.471 0.179,0.633 -0.276,0.844c-0.519,0.243 -1.038,0.438 -1.574,0.633c-0.438,0.146 -0.795,0.032 -1.054,-0.357c-0.082,-0.114 -0.163,-0.211 -0.227,-0.325c-0.958,-1.525 -2.547,-1.411 -3.65,-1.087c-0.243,0.081 -0.488,0.227 -0.682,0.422c-0.535,0.503 -0.487,1.022 0.162,1.379c0.536,0.308 1.12,0.519 1.72,0.714c1.184,0.389 2.368,0.73 3.553,1.119c0.778,0.26 1.46,0.698 1.947,1.379c0.178,0.26 0.373,0.552 0.422,0.86c0.341,1.963 -0.228,4.04 -2.336,5.143c-1.218,0.6 -2.418,0.86 -3.716,0.828Z" style="fill:#fff;fill-rule:nonzero;"/><path d="M119.059,130.951c-1.265,0.308 -1.963,-0.357 -2.547,-1.363c-0.617,-1.055 -1.314,-2.044 -2.012,-3.05c-0.487,-0.714 -0.616,-0.714 -1.119,0.032c-0.552,0.828 -1.103,1.671 -1.655,2.499c-1.201,1.866 -1.201,1.866 -3.358,1.849c-1.331,-0.016 -1.444,-0.194 -0.714,-1.346c1.054,-1.671 2.174,-3.294 3.277,-4.932c0.13,-0.195 0.26,-0.406 0.422,-0.6c0.324,-0.422 0.308,-0.812 -0,-1.25c-1.249,-1.801 -2.466,-3.618 -3.683,-5.435c-0.081,-0.113 -0.162,-0.227 -0.211,-0.34c-0.13,-0.292 -0.032,-0.52 0.276,-0.52c0.941,-0.016 1.882,-0.048 2.823,0.033c0.276,0.032 0.584,0.373 0.762,0.649c0.714,1.054 1.363,2.141 2.045,3.212c0.097,0.162 0.21,0.308 0.324,0.454c0.178,0.211 0.373,0.195 0.552,-0.016c0.146,-0.162 0.275,-0.324 0.405,-0.503c0.714,-1.071 1.444,-2.158 2.142,-3.244c0.211,-0.341 0.47,-0.617 0.876,-0.617c0.811,0 1.622,-0.016 2.433,0.049c0.536,0.048 0.617,0.243 0.309,0.681c-1.039,1.541 -2.093,3.083 -3.148,4.624c-0.243,0.357 -0.486,0.714 -0.73,1.071c-0.243,0.357 -0.243,0.697 -0.016,1.054c0.146,0.227 0.292,0.454 0.438,0.682c1.055,1.508 2.125,3.001 3.164,4.51c0.259,0.373 0.486,0.779 0.697,1.184c0.179,0.325 0.049,0.535 -0.308,0.552c-0.47,0.048 -0.957,0.065 -1.444,0.081Z" style="fill:#fff;fill-rule:nonzero;"/><path d="M93.864,236.649c-0.228,-0.082 -0.422,-0.13 -0.617,-0.228c-2.401,-1.2 -4.689,-2.579 -6.846,-4.152c-0.081,-0.066 -0.179,-0.131 -0.244,-0.212c-0.292,-0.291 -0.275,-0.455 0.081,-0.714c0.211,-0.162 0.455,-0.275 0.698,-0.405c2.158,-1.136 4.316,-2.255 6.457,-3.391c0.438,-0.228 0.86,-0.454 1.266,-0.714c0.503,-0.324 0.989,-0.324 1.525,-0.065c2.125,1.022 4.25,2.012 6.376,3.018c0.47,0.227 0.94,0.422 1.395,0.665c0.178,0.098 0.308,0.276 0.454,0.406c-0.146,0.145 -0.276,0.324 -0.438,0.421c-1.931,1.072 -3.877,2.142 -5.824,3.197c-1.185,0.648 -2.385,1.248 -3.586,1.882c-0.227,0.114 -0.47,0.195 -0.697,0.292Z" style="fill:#fff;fill-rule:nonzero;"/><path d="M204.493,226.492c0.243,0.098 0.471,0.163 0.698,0.276c2.758,1.428 5.517,2.871 8.258,4.315c0.99,0.519 1.006,0.731 0.049,1.348c-2.19,1.394 -4.316,2.887 -6.668,4.007c-0.405,0.195 -0.746,0.195 -1.153,-0.017c-3.099,-1.655 -6.213,-3.292 -9.312,-4.948c-0.259,-0.145 -0.471,-0.39 -0.698,-0.6c0.244,-0.195 0.472,-0.422 0.763,-0.567c2.385,-1.169 4.771,-2.305 7.155,-3.44c0.291,-0.147 0.6,-0.243 0.908,-0.374Z" style="fill:#fff;fill-rule:nonzero;"/><path d="M222.843,212.378c0.714,0.146 1.427,0.276 2.141,0.422c2.53,0.519 5.078,1.055 7.609,1.589c0.049,0.017 0.114,0 0.162,0.033c0.228,0.114 0.455,0.243 0.665,0.357c-0.129,0.195 -0.243,0.405 -0.405,0.568c-1.768,1.784 -3.569,3.537 -5.322,5.338c-0.665,0.697 -1.346,0.891 -2.32,0.681c-3.002,-0.665 -6.035,-1.217 -9.053,-1.817c-0.178,-0.032 -0.373,-0.081 -0.552,-0.114c-0.615,-0.146 -0.681,-0.292 -0.243,-0.778c0.471,-0.519 0.974,-1.023 1.477,-1.493c1.508,-1.396 3.034,-2.775 4.542,-4.154c0.391,-0.341 0.746,-0.665 1.299,-0.632Z" style="fill:#fff;fill-rule:nonzero;"/><path d="M73.519,221.674c-0.243,-0.146 -0.617,-0.292 -0.892,-0.551c-1.379,-1.331 -2.726,-2.694 -4.089,-4.04c-0.551,-0.552 -1.103,-1.103 -1.654,-1.672c-0.487,-0.503 -0.439,-0.665 0.259,-0.81c1.298,-0.276 2.596,-0.536 3.894,-0.812c1.768,-0.372 3.553,-0.697 5.305,-1.103c0.925,-0.21 1.638,-0.032 2.336,0.649c1.801,1.768 3.667,3.44 5.484,5.175c0.243,0.228 0.616,0.552 0.584,0.795c-0.049,0.422 -0.568,0.26 -0.892,0.325c-3.051,0.616 -6.101,1.217 -9.134,1.817c-0.341,0.065 -0.698,0.129 -1.201,0.227Z" style="fill:#fff;fill-rule:nonzero;"/><path d="M235.918,204.817l-4.623,0c-0.713,-0.016 -0.811,-0.178 -0.438,-0.827c0.244,-0.421 0.519,-0.828 0.795,-1.217c1.038,-1.476 2.108,-2.953 3.147,-4.428c0.292,-0.422 0.569,-0.86 0.828,-1.298c0.275,-0.455 0.665,-0.65 1.216,-0.665c3.034,-0.017 6.052,-0.05 9.085,-0.081l0.245,-0c0.551,0.031 0.665,0.193 0.421,0.729c-0.178,0.374 -0.373,0.714 -0.6,1.055c-1.298,1.995 -2.596,3.974 -3.894,5.97c-0.243,0.374 -0.536,0.584 -0.989,0.6c-0.407,0.017 -0.812,0.065 -1.217,0.065l-3.976,-0l0,0.097Z" style="fill:#fff;fill-rule:nonzero;"/><path d="M63.866,204.736c-1.493,0 -2.969,-0.016 -4.462,0c-0.762,0.017 -1.298,-0.259 -1.736,-0.941c-1.233,-1.963 -2.547,-3.877 -3.812,-5.824c-0.227,-0.341 -0.406,-0.698 -0.552,-1.07c-0.211,-0.504 -0.081,-0.65 0.422,-0.65c1.541,0.033 3.083,0.098 4.608,0.131c1.622,0.031 3.244,0.031 4.851,0.015c0.421,-0 0.73,0.163 0.957,0.488c0.34,0.486 0.632,1.005 0.973,1.491c1.168,1.72 2.353,3.424 3.537,5.143c0.178,0.26 0.341,0.553 0.487,0.844c0.113,0.244 -0,0.422 -0.276,0.454c-0.195,0.017 -0.373,0.017 -0.568,0.017l-4.462,-0c0.033,-0.033 0.033,-0.065 0.033,-0.098Z" style="fill:#fff;fill-rule:nonzero;"/><path d="M108.027,222.648c-0,0.469 -0.162,0.6 -0.552,0.421c-0.421,-0.178 -0.827,-0.405 -1.233,-0.6c-2.076,-0.989 -4.137,-1.996 -6.213,-2.952c-0.73,-0.341 -1.12,-0.812 -1.25,-1.639c-0.47,-3.099 -1.022,-6.181 -1.508,-9.28c-0.049,-0.276 0.016,-0.552 0.032,-0.827c0.243,0.097 0.503,0.162 0.714,0.308c2.466,1.557 4.9,3.163 7.398,4.671c0.795,0.488 1.201,1.039 1.33,1.965c0.357,2.465 0.811,4.898 1.217,7.349c0.016,0.21 0.033,0.421 0.065,0.584Z" style="fill:#fff;fill-rule:nonzero;"/><path d="M202.79,208.111c-0.179,1.103 -0.357,2.142 -0.536,3.18c-0.372,2.238 -0.762,4.461 -1.103,6.716c-0.097,0.682 -0.422,1.12 -1.038,1.412c-2.433,1.152 -4.867,2.336 -7.301,3.505c-0.016,0.016 -0.048,0.031 -0.081,0.031c-0.26,0.033 -0.503,0.066 -0.763,0.098c0,-0.227 -0.031,-0.47 0,-0.698c0.341,-1.995 0.715,-3.974 1.055,-5.97c0.129,-0.714 0.212,-1.444 0.293,-2.158c0.064,-0.551 0.356,-0.908 0.827,-1.201c2.498,-1.541 4.981,-3.13 7.463,-4.688c0.226,-0.146 0.438,-0.308 0.681,-0.438c0.389,-0.21 0.536,-0.114 0.503,0.211Z" style="fill:#fff;fill-rule:nonzero;"/><path d="M244.501,88.688c-0.195,2.125 -0.405,4.251 -0.6,6.376c-0.048,0.616 -0.065,1.233 -0.114,1.866c-0.015,0.194 -0.113,0.389 -0.162,0.584c-0.194,-0.114 -0.406,-0.195 -0.601,-0.325c-0.112,-0.065 -0.193,-0.194 -0.274,-0.292c-1.705,-2.093 -3.375,-4.218 -5.128,-6.278c-0.682,-0.812 -0.875,-1.671 -0.779,-2.694c0.244,-2.579 0.423,-5.159 0.633,-7.738c0.033,-0.325 0.081,-0.649 0.146,-0.957c0.049,-0.244 0.228,-0.292 0.422,-0.163c0.227,0.146 0.454,0.308 0.616,0.519c1.022,1.266 2.029,2.531 3.018,3.797c0.698,0.892 1.379,1.801 2.109,2.677c0.568,0.665 0.828,1.379 0.681,2.239c-0.015,0.129 -0.015,0.275 -0.032,0.405c0.032,-0.032 0.049,-0.016 0.065,-0.016Z" style="fill:#fff;fill-rule:nonzero;"/><path d="M165.946,123.326c-0,-1.006 0.016,-1.996 -0,-3.002c-0.017,-0.746 -0.195,-0.892 -0.941,-0.843l-0.081,-0c-1.103,0.373 -1.12,-0.114 -1.184,-0.99c-0.033,-0.406 -0.033,-0.811 -0.017,-1.217c0.017,-0.746 0.114,-0.843 0.843,-0.86c0.293,0 0.601,0.017 0.893,-0.016c0.503,-0.049 0.601,-0.178 0.584,-0.681c-0.033,-0.682 -0.081,-1.347 -0.081,-2.028c0,-0.617 0.114,-0.73 0.698,-0.763c0.617,-0.032 1.249,-0.032 1.865,0c0.536,0.033 0.665,0.179 0.698,0.698c0.032,0.568 0,1.136 0.017,1.703c-0,0.812 0.112,0.925 0.924,0.974c0.536,0.016 1.087,-0 1.622,-0c1.022,0.016 1.12,0.13 1.136,1.119c0,0.325 0.016,0.649 0,0.974c-0.033,0.762 -0.162,0.908 -0.909,0.924c-0.6,0.017 -1.184,0 -1.784,0c-0.827,0.017 -0.974,0.146 -0.989,0.941c-0.017,1.655 -0.017,3.294 -0,4.949c-0,0.259 0.048,0.535 0.097,0.795c0.129,0.73 0.584,1.135 1.313,1.233c0.341,0.048 0.698,0.064 1.055,0.113c0.551,0.065 0.698,0.162 0.73,0.682c0.033,0.746 0.016,1.508 -0.015,2.271c-0.017,0.422 -0.276,0.584 -0.698,0.616c-1.412,0.114 -2.742,-0.146 -3.959,-0.892c-0.65,-0.406 -1.152,-0.925 -1.346,-1.655c-0.212,-0.827 -0.357,-1.687 -0.422,-2.547c-0.097,-0.811 -0.049,-1.655 -0.049,-2.498Z" style="fill:#fff;fill-rule:nonzero;"/><path d="M243.382,188.075c-0.698,0 -0.811,-0.147 -0.568,-0.714c0.827,-1.865 1.687,-3.748 2.53,-5.614c0.31,-0.681 0.617,-1.379 0.893,-2.076c0.211,-0.552 0.568,-0.876 1.168,-0.99c1.834,-0.357 3.651,-0.73 5.467,-1.103c0.763,-0.162 1.526,-0.357 2.289,-0.503c0.794,-0.146 0.924,-0.016 0.632,0.73c-0.763,2.012 -1.558,4.024 -2.352,6.035c-0.212,0.536 -0.407,1.055 -0.617,1.59c-0.227,0.552 -0.633,0.795 -1.217,0.925c-1.817,0.356 -3.633,0.794 -5.451,1.185c-0.957,0.195 -1.947,0.372 -2.774,0.535Z" style="fill:#fff;fill-rule:nonzero;"/><path d="M55.43,88.201c-0.163,-0.779 0.129,-1.46 0.648,-2.109c1.704,-2.125 3.375,-4.283 5.062,-6.424c0.146,-0.195 0.309,-0.39 0.487,-0.536c0.114,-0.097 0.308,-0.194 0.422,-0.146c0.097,0.033 0.195,0.244 0.195,0.389c0.097,1.055 0.194,2.093 0.275,3.148c0.163,2.077 0.325,4.137 0.503,6.214c0.049,0.6 -0.178,1.103 -0.551,1.557c-1.266,1.574 -2.515,3.164 -3.781,4.754c-0.551,0.697 -1.119,1.379 -1.687,2.076c-0.113,0.146 -0.259,0.276 -0.405,0.406c-0.195,0.162 -0.357,0.113 -0.422,-0.13c-0.033,-0.097 -0.033,-0.211 -0.033,-0.324c-0.243,-2.953 -0.47,-5.89 -0.713,-8.875Z" style="fill:#fff;fill-rule:nonzero;"/><path d="M56.598,188.059c-0.844,-0.195 -1.866,-0.422 -2.904,-0.65c-1.704,-0.372 -3.424,-0.762 -5.143,-1.103c-0.552,-0.113 -0.941,-0.341 -1.152,-0.892c-0.974,-2.482 -1.963,-4.981 -2.92,-7.463c-0.114,-0.276 -0.082,-0.616 -0.098,-0.925c0.308,0 0.633,-0.032 0.925,0.016c2.32,0.503 4.64,1.039 6.976,1.509c0.99,0.195 1.493,0.73 1.866,1.655c0.957,2.369 2.028,4.704 3.066,7.057c0.016,0.033 0.033,0.049 0.033,0.065c0.275,0.6 0.162,0.762 -0.649,0.731Z" style="fill:#fff;fill-rule:nonzero;"/><path d="M91.917,203.941c-0.195,1.541 -0.357,2.889 -0.519,4.219c-0.163,1.314 -0.309,2.627 -0.471,3.942c-0.016,0.114 -0.016,0.211 -0.032,0.324c-0.114,0.698 -0.26,0.763 -0.795,0.341c-0.341,-0.26 -0.666,-0.551 -0.974,-0.844c-1.801,-1.67 -3.585,-3.358 -5.386,-5.045c-0.341,-0.308 -0.487,-0.633 -0.422,-1.136c0.357,-2.595 0.665,-5.191 0.99,-7.787c0.048,-0.341 0.081,-0.698 0.162,-1.039c0.049,-0.227 0.243,-0.275 0.438,-0.129c0.114,0.081 0.195,0.179 0.292,0.276c1.736,1.93 3.602,3.731 5.597,5.403c0.276,0.226 0.552,0.453 0.763,0.729c0.178,0.26 0.276,0.6 0.357,0.746Z" style="fill:#fff;fill-rule:nonzero;"/><path d="M216.613,205.71c0.081,0.357 -0.147,0.779 -0.585,1.184c-2.028,1.866 -4.039,3.748 -6.051,5.63c-0.081,0.081 -0.146,0.145 -0.243,0.211c-0.374,0.275 -0.584,0.194 -0.649,-0.276c-0.114,-0.876 -0.195,-1.768 -0.309,-2.661c-0.21,-1.719 -0.405,-3.439 -0.648,-5.143c-0.131,-0.827 0.081,-1.427 0.713,-1.996c1.396,-1.2 2.742,-2.449 4.056,-3.714c0.665,-0.633 1.234,-1.363 1.849,-2.029c0.147,-0.162 0.374,-0.259 0.569,-0.372c0.081,0.194 0.21,0.372 0.243,0.567c0.374,2.79 0.698,5.565 1.055,8.599Z" style="fill:#fff;fill-rule:nonzero;"/><path d="M61.075,175.566c0.13,-0.276 0.211,-0.535 0.341,-0.762c1.298,-2.255 2.596,-4.494 3.878,-6.749c0.064,-0.114 0.129,-0.244 0.211,-0.341c0.21,-0.243 0.438,-0.227 0.6,0.016c0.162,0.243 0.276,0.519 0.405,0.795c0.682,1.622 1.331,3.245 2.045,4.851c0.308,0.714 0.681,1.411 1.087,2.093c0.308,0.551 0.356,1.054 0.032,1.606c-1.298,2.239 -2.596,4.494 -3.91,6.733c-0.049,0.097 -0.113,0.178 -0.178,0.259c-0.455,0.601 -0.601,0.584 -0.909,-0.097c-1.103,-2.498 -2.206,-4.997 -3.31,-7.495c-0.129,-0.276 -0.194,-0.601 -0.292,-0.909Z" style="fill:#fff;fill-rule:nonzero;"/><path d="M79.571,190.994c-0.098,0.309 -0.13,0.455 -0.195,0.617c-0.795,2.223 -1.574,4.43 -2.369,6.653c-0.13,0.372 -0.308,0.746 -0.519,1.103c-0.26,0.438 -0.406,0.453 -0.714,0.064c-0.276,-0.357 -0.535,-0.746 -0.795,-1.136c-1.33,-1.946 -2.628,-3.909 -3.975,-5.824c-0.389,-0.551 -0.47,-1.054 -0.243,-1.654c0.308,-0.812 0.616,-1.624 0.892,-2.434c0.536,-1.558 1.039,-3.131 1.574,-4.689c0.081,-0.243 0.243,-0.454 0.373,-0.681c0.227,0.162 0.471,0.324 0.682,0.503c0.081,0.065 0.146,0.162 0.194,0.259c1.331,2.24 3.018,4.218 4.543,6.311c0.243,0.293 0.405,0.649 0.552,0.908Z" style="fill:#fff;fill-rule:nonzero;"/><path d="M238.807,175.469c-0.097,0.276 -0.163,0.503 -0.259,0.73c-1.088,2.531 -2.175,5.062 -3.261,7.593c-0.033,0.081 -0.066,0.146 -0.098,0.227c-0.243,0.422 -0.438,0.438 -0.731,0.097c-0.081,-0.097 -0.145,-0.227 -0.226,-0.341c-1.153,-1.914 -2.321,-3.828 -3.472,-5.743c-1.023,-1.719 -0.99,-1.703 -0.13,-3.472c0.989,-2.044 1.898,-4.121 2.871,-6.165c0.147,-0.292 0.357,-0.714 0.617,-0.762c0.39,-0.081 0.519,0.389 0.681,0.681c1.233,2.125 2.45,4.251 3.668,6.392c0.129,0.227 0.226,0.503 0.34,0.763Z" style="fill:#fff;fill-rule:nonzero;"/><path d="M229.234,191.611c-0.112,0.228 -0.194,0.488 -0.34,0.698c-1.542,2.239 -3.115,4.478 -4.672,6.717c-0.065,0.081 -0.131,0.179 -0.195,0.26c-0.455,0.567 -0.649,0.534 -0.908,-0.162c-0.877,-2.467 -1.737,-4.95 -2.613,-7.415c-0.21,-0.601 -0.129,-1.12 0.26,-1.671c1.443,-1.979 2.855,-3.992 4.283,-6.003c0.228,-0.308 0.471,-0.6 0.714,-0.892c0.21,-0.244 0.422,-0.227 0.584,0.048c0.114,0.211 0.211,0.438 0.292,0.666c0.779,2.303 1.573,4.591 2.352,6.894c0.081,0.293 0.146,0.552 0.243,0.86Z" style="fill:#fff;fill-rule:nonzero;"/><path d="M55.121,158.985c0.081,-0.178 0.179,-0.438 0.325,-0.648c0.178,-0.26 0.405,-0.503 0.632,-0.747c1.542,-1.622 3.099,-3.244 4.64,-4.867c0.098,-0.097 0.195,-0.195 0.292,-0.276c0.374,-0.275 0.585,-0.227 0.698,0.227c0.162,0.601 0.26,1.217 0.406,1.818c0.357,1.525 0.681,3.05 1.071,4.575c0.146,0.567 0.356,1.135 0.6,1.671c0.178,0.405 0.13,0.713 -0.162,1.022c-1.834,1.979 -3.667,3.958 -5.517,5.938c-0.227,0.243 -0.567,0.373 -0.843,0.551c-0.13,-0.308 -0.292,-0.616 -0.357,-0.941c-0.552,-2.579 -1.087,-5.175 -1.622,-7.771c-0.065,-0.146 -0.098,-0.308 -0.163,-0.552Z" style="fill:#fff;fill-rule:nonzero;"/><path d="M244.777,158.856c-0.033,0.211 -0.049,0.324 -0.081,0.421c-0.552,2.661 -1.119,5.338 -1.672,7.999c-0.031,0.13 -0.048,0.259 -0.081,0.389c-0.162,0.519 -0.388,0.6 -0.81,0.244c-0.276,-0.211 -0.503,-0.487 -0.747,-0.747c-1.573,-1.752 -3.115,-3.504 -4.705,-5.24c-0.454,-0.503 -0.519,-0.941 -0.341,-1.59c0.585,-2.077 1.072,-4.186 1.591,-6.279c0.129,-0.502 0.21,-1.005 0.372,-1.492c0.147,-0.438 0.341,-0.503 0.731,-0.243c0.178,0.113 0.341,0.275 0.486,0.421c1.606,1.785 3.213,3.57 4.802,5.37c0.196,0.244 0.325,0.536 0.455,0.747Z" style="fill:#fff;fill-rule:nonzero;"/><path d="M260.985,157.525c-0.017,0.098 -0.017,0.26 -0.049,0.422c-0.52,2.612 -1.054,5.24 -1.558,7.852c-0.113,0.585 -0.405,0.974 -0.956,1.201c-2.046,0.909 -4.09,1.833 -6.15,2.726c-0.356,0.146 -0.892,0.357 -1.12,0.211c-0.372,-0.244 -0.031,-0.747 0.05,-1.12c0.503,-2.433 1.07,-4.851 1.541,-7.284c0.162,-0.876 0.6,-1.347 1.396,-1.704c2.044,-0.892 4.071,-1.866 6.099,-2.807c0.033,-0.016 0.049,-0.032 0.066,-0.032c0.55,-0.26 0.696,-0.162 0.681,0.535Z" style="fill:#fff;fill-rule:nonzero;"/><path d="M39.027,157.639c-0.016,-0.746 0.146,-0.876 0.763,-0.6c2.109,0.957 4.218,1.93 6.327,2.904c0.535,0.243 0.941,0.6 1.071,1.233c0.535,2.725 1.103,5.451 1.655,8.176c0.048,0.244 -0.017,0.503 -0.033,0.763c-0.259,-0.065 -0.519,-0.097 -0.762,-0.211c-2.028,-0.876 -4.04,-1.817 -6.084,-2.661c-0.795,-0.324 -1.282,-0.778 -1.428,-1.655c-0.438,-2.449 -0.941,-4.867 -1.428,-7.316c-0.048,-0.228 -0.064,-0.471 -0.081,-0.633Z" style="fill:#fff;fill-rule:nonzero;"/><path d="M52.866,145.763c0,-1.411 0.016,-2.807 0,-4.218c-0.016,-0.633 0.211,-1.055 0.73,-1.428c1.785,-1.265 3.553,-2.563 5.322,-3.829c0.227,-0.162 0.519,-0.227 0.778,-0.324c0.065,0.26 0.163,0.519 0.179,0.779c0.097,1.784 0.162,3.553 0.259,5.337c0.049,0.86 0.114,1.72 0.244,2.58c0.097,0.6 -0.081,0.973 -0.552,1.314c-2.06,1.493 -4.088,3.001 -6.149,4.494c-0.162,0.114 -0.389,0.146 -0.567,0.211c-0.049,-0.211 -0.114,-0.406 -0.114,-0.617c-0.016,-1.427 -0,-2.855 -0,-4.299l-0.13,0Z" style="fill:#fff;fill-rule:nonzero;"/><path d="M247.016,145.65l0,4.299c0,0.178 -0.066,0.357 -0.097,0.535c-0.195,-0.065 -0.422,-0.097 -0.584,-0.211c-1.622,-1.168 -3.23,-2.352 -4.835,-3.536c-0.439,-0.325 -0.844,-0.666 -1.298,-0.958c-0.535,-0.357 -0.713,-0.811 -0.649,-1.444c0.162,-1.606 0.291,-3.228 0.405,-4.834c0.065,-0.86 0.05,-1.72 0.081,-2.596c0,-0.195 0.017,-0.373 0.033,-0.568c0.065,-0.714 0.26,-0.811 0.86,-0.373c1.265,0.925 2.499,1.882 3.748,2.823c0.567,0.422 1.119,0.844 1.719,1.217c0.52,0.34 0.746,0.795 0.73,1.427c-0.032,1.412 -0.015,2.807 -0.015,4.219l-0.098,-0Z" style="fill:#fff;fill-rule:nonzero;"/><path d="M255.161,145.779c-0,-1.298 0.031,-2.595 -0.017,-3.893c-0.016,-0.763 0.243,-1.266 0.86,-1.704c1.492,-1.022 2.952,-2.093 4.429,-3.147c0.39,-0.276 0.746,-0.617 1.152,-0.909c0.324,-0.227 0.487,-0.162 0.568,0.211c0.064,0.341 0.114,0.698 0.114,1.038c-0,2.434 -0.05,4.868 -0.033,7.301c-0,0.925 -0.358,1.541 -1.136,2.061c-1.72,1.168 -3.391,2.417 -5.077,3.617c-0.131,0.098 -0.277,0.179 -0.422,0.244c-0.228,0.097 -0.374,-0 -0.407,-0.227c-0.031,-0.179 -0.016,-0.374 -0.016,-0.568c-0,-1.314 -0,-2.661 -0.015,-4.024Z" style="fill:#fff;fill-rule:nonzero;"/><path d="M44.657,145.828l-0,4.137c-0,0.195 -0.081,0.389 -0.13,0.584c-0.162,-0.065 -0.357,-0.113 -0.503,-0.211c-1.152,-0.795 -2.304,-1.606 -3.439,-2.417c-0.746,-0.536 -1.493,-1.071 -2.255,-1.59c-0.422,-0.276 -0.649,-0.633 -0.649,-1.136c-0,-2.774 -0.016,-5.564 -0,-8.339c-0,-0.308 0.146,-0.616 0.243,-0.908c0.292,0.162 0.6,0.292 0.876,0.487c1.606,1.151 3.164,2.368 4.802,3.455c0.828,0.552 1.152,1.201 1.12,2.158c-0.097,1.233 -0.049,2.515 -0.065,3.78Z" style="fill:#fff;fill-rule:nonzero;"/><path d="M52.785,131.064c0.325,-2.514 0.649,-5.029 0.957,-7.56c0.098,-0.762 0.422,-1.282 1.103,-1.655c1.866,-0.989 3.699,-2.028 5.549,-3.034c0.179,-0.097 0.406,-0.081 0.6,-0.129c0.033,0.194 0.13,0.405 0.098,0.6c-0.098,0.86 -0.244,1.703 -0.341,2.563c-0.211,1.85 -0.438,3.699 -0.584,5.565c-0.065,0.73 -0.357,1.184 -0.99,1.525c-1.866,1.022 -3.715,2.093 -5.581,3.131c-0.097,0.049 -0.178,0.114 -0.276,0.162c-0.389,0.147 -0.567,0.033 -0.584,-0.373c0,-0.259 0.049,-0.519 0.049,-0.795Z" style="fill:#fff;fill-rule:nonzero;"/><path d="M247.226,131.389c-0.031,0.211 -0.097,0.519 -0.145,0.827c-0.293,-0.097 -0.617,-0.13 -0.877,-0.276c-1.817,-0.957 -3.618,-1.946 -5.434,-2.904c-0.617,-0.324 -0.909,-0.746 -0.909,-1.46c-0,-2.255 -0.308,-4.477 -0.681,-6.684c-0.082,-0.535 -0.308,-1.038 -0.389,-1.574c-0.098,-0.632 0.097,-0.762 0.665,-0.486c0.583,0.292 1.152,0.6 1.719,0.908c1.33,0.714 2.678,1.428 4.024,2.125c0.536,0.276 0.924,0.65 1.005,1.282c0.325,2.726 0.665,5.435 1.022,8.242Z" style="fill:#fff;fill-rule:nonzero;"/><path d="M172.549,233.241c-0.098,1.103 -0.146,2.158 -0.293,3.197c-0.129,1.005 -0.551,1.915 -1.119,2.758c-2.028,2.985 -6.587,2.271 -7.836,-0.779c-0.47,-1.168 -0.779,-2.353 -0.843,-3.618c-0.082,-1.817 -0.017,-3.618 0.551,-5.37c0.876,-2.677 2.807,-3.845 5.483,-3.358c1.899,0.357 3.408,1.915 3.749,3.99c0.162,1.055 0.21,2.142 0.308,3.18Zm-1.98,0.243c-0.033,0 -0.048,-0.015 -0.081,-0.015c-0.016,-0.536 -0.033,-1.088 -0.081,-1.622c-0.081,-0.941 -0.162,-1.882 -0.584,-2.758c-0.421,-0.86 -1.071,-1.396 -2.077,-1.444c-1.005,-0.05 -1.833,0.308 -2.32,1.184c-0.34,0.632 -0.632,1.313 -0.795,2.011c-0.341,1.493 -0.291,3.002 -0.146,4.511c0.114,1.039 0.422,2.011 1.006,2.871c0.941,1.396 2.694,1.541 3.78,0.227c0.407,-0.487 0.715,-1.103 0.844,-1.719c0.244,-1.038 0.309,-2.141 0.454,-3.246Z" style="fill:#fff;fill-rule:nonzero;"/><path d="M139.095,233.729c0.13,-1.186 0.179,-2.37 0.406,-3.537c0.13,-0.731 0.438,-1.461 0.795,-2.109c0.665,-1.217 1.703,-1.948 3.099,-2.093c2.514,-0.26 4.413,0.729 5.207,3.147c0.974,2.969 0.877,5.971 -0.21,8.907c-0.584,1.557 -1.623,2.644 -3.342,2.984c-1.996,0.391 -3.91,-0.453 -4.868,-2.254c-0.649,-1.217 -0.908,-2.531 -0.973,-3.894c-0.016,-0.372 -0,-0.762 -0,-1.136c-0.065,-0.015 -0.097,-0.015 -0.114,-0.015Zm8.096,-0.293c-0.049,-0.746 -0.032,-1.379 -0.13,-1.979c-0.113,-0.714 -0.227,-1.444 -0.47,-2.125c-0.471,-1.298 -1.249,-1.753 -2.612,-1.687c-0.925,0.048 -1.606,0.486 -2.012,1.281c-0.26,0.503 -0.454,1.039 -0.568,1.59c-0.357,1.817 -0.389,3.651 -0.097,5.467c0.113,0.698 0.373,1.412 0.681,2.061c0.828,1.736 3.294,1.671 4.186,0.162c0.243,-0.406 0.454,-0.86 0.6,-1.314c0.422,-1.152 0.422,-2.369 0.422,-3.456Z" style="fill:#fff;fill-rule:nonzero;"/><path d="M51.39,101.05c-0.033,0.163 -0.065,0.325 -0.114,0.471c-0.827,2.742 -1.655,5.484 -2.482,8.209c-0.049,0.162 -0.178,0.325 -0.26,0.471c-0.162,-0.114 -0.389,-0.179 -0.502,-0.341c-1.396,-1.785 -2.759,-3.602 -4.154,-5.402c-0.308,-0.406 -0.389,-0.828 -0.211,-1.298c0.941,-2.531 1.898,-5.062 2.839,-7.577c0.033,-0.097 0.082,-0.195 0.13,-0.292c0.146,-0.276 0.341,-0.341 0.568,-0.097c0.081,0.081 0.146,0.162 0.211,0.243c1.119,1.493 2.239,2.969 3.358,4.462c0.179,0.243 0.341,0.486 0.503,0.746c0.065,0.146 0.081,0.276 0.114,0.405Z" style="fill:#fff;fill-rule:nonzero;"/><path d="M256.457,103.727c-0.112,0.227 -0.193,0.52 -0.355,0.747c-1.348,1.768 -2.711,3.504 -4.073,5.256c-0.048,0.065 -0.098,0.13 -0.162,0.179c-0.358,0.357 -0.503,0.34 -0.682,-0.13c-0.21,-0.584 -0.389,-1.184 -0.567,-1.769c-0.65,-2.141 -1.282,-4.299 -1.931,-6.44c-0.146,-0.487 -0.113,-0.876 0.211,-1.282c1.184,-1.509 2.335,-3.05 3.504,-4.575c0.114,-0.146 0.227,-0.308 0.374,-0.422c0.291,-0.243 0.47,-0.211 0.615,0.146c0.228,0.519 0.39,1.071 0.601,1.59c0.747,1.995 1.493,4.007 2.239,6.003c0.081,0.227 0.145,0.422 0.226,0.697Z" style="fill:#fff;fill-rule:nonzero;"/><path d="M45.565,122.206c-0.194,1.525 -0.389,3.05 -0.584,4.575c-0.178,1.314 -0.356,2.612 -0.535,3.926c-0.032,0.179 -0.13,0.341 -0.195,0.503c-0.162,-0.081 -0.34,-0.129 -0.47,-0.243c-1.558,-1.444 -3.099,-2.92 -4.673,-4.364c-0.454,-0.422 -0.649,-0.876 -0.551,-1.509c0.438,-2.661 0.843,-5.321 1.265,-7.998c0.033,-0.163 0.049,-0.325 0.098,-0.471c0.097,-0.259 0.292,-0.308 0.503,-0.162c0.113,0.065 0.21,0.162 0.308,0.26c1.395,1.281 2.758,2.579 4.169,3.845c0.519,0.47 0.795,0.957 0.665,1.638Z" style="fill:#fff;fill-rule:nonzero;"/><path d="M254.349,121.59c0.097,-0.195 0.195,-0.584 0.454,-0.828c1.477,-1.427 2.985,-2.823 4.479,-4.234c0.064,-0.049 0.112,-0.114 0.193,-0.146c0.341,-0.227 0.488,-0.195 0.584,0.195c0.082,0.34 0.147,0.681 0.195,1.038c0.374,2.401 0.746,4.802 1.136,7.203c0.114,0.714 -0.064,1.266 -0.6,1.736c-1.055,0.925 -2.094,1.866 -3.132,2.823c-0.453,0.422 -0.875,0.892 -1.33,1.314c-0.162,0.146 -0.389,0.227 -0.6,0.341c-0.081,-0.195 -0.195,-0.389 -0.227,-0.584c-0.114,-0.714 -0.211,-1.444 -0.309,-2.174c-0.259,-2.012 -0.519,-4.024 -0.779,-6.035c0,-0.146 -0.031,-0.309 -0.064,-0.649Z" style="fill:#fff;fill-rule:nonzero;"/><path d="M136.451,240.673l-7.723,-0c-0.275,-0 -0.535,-0.017 -0.811,-0.05c-0.324,-0.031 -0.503,-0.226 -0.47,-0.535c0.162,-1.623 0.519,-3.164 1.833,-4.284c0.568,-0.486 1.233,-0.875 1.866,-1.281c0.989,-0.616 2.011,-1.168 2.969,-1.816c0.989,-0.666 1.476,-1.639 1.314,-2.856c-0.049,-0.357 -0.179,-0.746 -0.373,-1.055c-0.633,-0.941 -1.574,-1.232 -2.677,-1.151c-1.055,0.081 -1.882,0.503 -2.304,1.508c-0.195,0.438 -0.292,0.925 -0.454,1.379c-0.211,0.617 -0.568,0.811 -1.185,0.634c-0.503,-0.147 -0.649,-0.326 -0.665,-0.86c-0.065,-1.591 1.103,-3.424 2.596,-3.976c1.298,-0.486 2.644,-0.567 3.991,-0.243c1.785,0.438 2.937,1.785 3.115,3.618c0.179,1.704 -0.292,3.164 -1.785,4.153c-0.941,0.633 -1.93,1.201 -2.887,1.801c-0.682,0.438 -1.396,0.827 -2.028,1.331c-0.406,0.324 -0.73,0.777 -1.039,1.232c-0.211,0.309 -0.081,0.519 0.276,0.584c0.26,0.049 0.535,0.049 0.811,0.049c1.898,0 3.78,0 5.679,0.017c0.697,-0 0.778,0.096 0.908,0.567c0.244,0.958 0.049,1.234 -0.957,1.234Z" style="fill:#fff;fill-rule:nonzero;"/><path d="M153.924,123.796l-0,-5.597c-0,-0.292 -0,-0.6 0.016,-0.892c0.049,-0.747 0.13,-0.812 0.892,-0.779c0.536,0.016 1.087,-0 1.623,-0c0.665,-0 0.665,0.016 0.827,0.698c0.033,0.146 0.146,0.259 0.211,0.389c0.13,-0.081 0.292,-0.146 0.373,-0.26c0.665,-0.941 1.606,-1.233 2.693,-1.103c0.714,0.081 0.893,0.341 0.828,1.022c-0.065,0.665 -0.162,1.347 -0.292,1.996c-0.097,0.535 -0.243,0.6 -0.795,0.568c-1.72,-0.114 -2.661,0.665 -2.807,2.384c-0.065,0.828 -0.081,1.672 -0.081,2.515c0,1.785 0.016,3.569 0,5.354c0,0.827 -0.081,0.892 -0.876,0.892c-0.681,0.016 -1.347,0 -2.028,0.016c-0.422,0.017 -0.6,-0.178 -0.617,-0.567c0,-0.244 -0.016,-0.487 -0.016,-0.73c0.033,-1.963 0.033,-3.927 0.049,-5.906Z" style="fill:#fff;fill-rule:nonzero;"/><path d="M155.741,240.656c-1.347,0 -2.709,0.017 -4.056,0c-0.844,-0.016 -0.973,-0.195 -0.827,-1.038c0.373,-2.142 1.379,-3.829 3.342,-4.9c0.86,-0.455 1.687,-0.974 2.514,-1.493c0.438,-0.275 0.844,-0.584 1.217,-0.941c0.86,-0.811 1.168,-2.044 0.714,-3.033c-0.503,-1.087 -1.395,-1.606 -2.58,-1.639c-1.573,-0.033 -2.498,0.681 -2.855,2.19c-0.049,0.211 -0.081,0.423 -0.146,0.633c-0.162,0.552 -0.438,0.746 -0.99,0.762c-0.551,0.017 -0.795,-0.195 -0.843,-0.746c-0.146,-1.557 0.892,-3.406 2.336,-4.056c1.671,-0.746 3.375,-0.713 5.029,-0c0.941,0.405 1.509,1.2 1.915,2.11c0.649,1.427 0.519,4.023 -1.428,5.288c-1.071,0.682 -2.174,1.315 -3.245,1.98c-0.616,0.389 -1.233,0.779 -1.784,1.249c-0.341,0.292 -0.617,0.681 -0.828,1.071c-0.292,0.551 -0.162,0.729 0.438,0.762c0.211,0.017 0.438,0 0.649,0c1.866,0 3.732,-0.016 5.597,0c0.649,0 0.796,0.146 0.925,0.682c0.179,0.778 -0.048,1.119 -0.876,1.136c-1.411,0.015 -2.807,-0 -4.218,-0.017c-0,0.017 -0,0.017 -0,0Z" style="fill:#fff;fill-rule:nonzero;"/><path d="M152.529,159.862c0.649,-0.017 0.86,0.162 1.022,0.892c0.454,1.979 0.892,3.959 1.33,5.922c0.097,0.421 0.211,0.843 0.341,1.249c0.049,0.162 0.178,0.292 0.276,0.438c0.081,-0.162 0.194,-0.308 0.243,-0.487c0.26,-0.99 0.503,-1.979 0.779,-2.969c0.373,-1.411 0.746,-2.823 1.152,-4.218c0.227,-0.795 1.087,-1.119 1.768,-0.665c0.195,0.13 0.324,0.422 0.389,0.665c0.536,1.931 1.039,3.861 1.558,5.792c0.146,0.519 0.292,1.038 0.454,1.557c0.033,0.114 0.146,0.211 0.227,0.309c0.065,-0.098 0.163,-0.195 0.195,-0.309c0.259,-1.07 0.519,-2.157 0.746,-3.228c0.309,-1.363 0.585,-2.742 0.893,-4.121c0.162,-0.714 1.005,-1.071 1.638,-0.698c0.308,0.179 0.244,0.438 0.162,0.714c-0.243,0.86 -0.519,1.704 -0.745,2.564c-0.634,2.319 -1.234,4.64 -1.867,6.96c-0.194,0.713 -0.454,0.908 -1.151,0.859c-0.52,-0.032 -0.666,-0.146 -0.828,-0.713c-0.454,-1.639 -0.909,-3.278 -1.363,-4.916c-0.259,-0.941 -0.486,-1.882 -0.746,-2.823c-0.033,-0.097 -0.097,-0.179 -0.146,-0.276c-0.097,0.081 -0.227,0.146 -0.276,0.26c-0.162,0.421 -0.324,0.86 -0.438,1.298c-0.584,2.076 -1.152,4.169 -1.72,6.246c-0.113,0.389 -0.211,0.778 -0.697,0.908c-0.682,0.179 -1.103,-0.016 -1.298,-0.714c-0.389,-1.379 -0.73,-2.774 -1.087,-4.153c-0.471,-1.833 -0.941,-3.65 -1.412,-5.484c-0.178,-0.681 -0.064,-0.843 0.601,-0.859Z" style="fill:#fff;fill-rule:nonzero;"/><path d="M243.284,112.375c0.033,0.34 -0.113,0.47 -0.372,0.438c-0.245,-0.033 -0.471,-0.098 -0.698,-0.163c-1.46,-0.47 -2.921,-0.973 -4.381,-1.427c-0.633,-0.195 -0.974,-0.552 -1.167,-1.201c-0.829,-2.644 -1.705,-5.289 -2.565,-7.917c-0.048,-0.146 -0.113,-0.308 -0.146,-0.47c-0.048,-0.244 0.065,-0.374 0.309,-0.357c0.211,0.016 0.437,0.048 0.632,0.113c1.639,0.536 3.278,1.087 4.917,1.639c0.584,0.194 0.957,0.568 1.136,1.152c0.762,2.612 1.524,5.224 2.287,7.852c0.016,0.13 0.032,0.26 0.048,0.341Z" style="fill:#fff;fill-rule:nonzero;"/><path d="M56.581,112.229c0.033,-0.114 0.082,-0.325 0.146,-0.536c0.73,-2.433 1.493,-4.851 2.191,-7.284c0.259,-0.909 0.746,-1.412 1.655,-1.671c1.427,-0.406 2.822,-0.909 4.234,-1.363c0.178,-0.065 0.357,-0.146 0.535,-0.162c0.227,-0.017 0.455,0.016 0.698,0.032c-0.033,0.211 -0.033,0.422 -0.114,0.617c-0.762,2.174 -1.525,4.331 -2.271,6.489c-0.178,0.535 -0.341,1.087 -0.47,1.639c-0.13,0.519 -0.422,0.86 -0.925,1.038c-1.687,0.568 -3.375,1.152 -5.062,1.704c-0.519,0.146 -0.649,0.032 -0.617,-0.503Z" style="fill:#fff;fill-rule:nonzero;"/><path d="M179.509,117.258l0,12.492c-0.049,1.103 -0.114,1.168 -1.25,1.185c-0.534,-0 -1.086,0.016 -1.622,-0.017c-0.632,-0.032 -0.763,-0.146 -0.844,-0.746c-0.048,-0.406 -0.081,-0.811 -0.081,-1.217l0,-9.815c0,-0.649 0.017,-1.298 0.017,-1.947c-0,-0.519 0.064,-0.649 0.584,-0.681c0.827,-0.049 1.671,-0.065 2.515,-0.017c0.617,0.033 0.681,0.146 0.681,0.763Z" style="fill:#fff;fill-rule:nonzero;"/><path d="M120.016,171.04c-0.697,-0 -1.411,0.016 -2.109,-0c-0.681,-0.016 -0.762,-0.114 -0.762,-0.747c0.016,-2.92 0.032,-5.84 0.032,-8.76c0,-0.325 -0.016,-0.649 -0.048,-0.974c-0.049,-0.373 0.113,-0.568 0.486,-0.584c1.866,-0.113 3.732,-0.243 5.581,0.114c0.909,0.178 1.736,0.616 1.963,1.606c0.227,1.038 0.26,2.109 -0.681,2.92c-0.406,0.357 -0.406,0.406 0.049,0.698c1.086,0.697 1.443,1.687 1.265,2.936c-0.179,1.249 -0.909,2.061 -2.077,2.45c-0.551,0.178 -1.152,0.292 -1.736,0.341c-0.665,0.048 -1.314,-0 -1.963,-0Zm-1.168,-3.342c0.016,0.194 0.016,0.373 0.016,0.567c0,0.195 -0.016,0.374 -0.016,0.568c-0.016,0.714 0.016,0.795 0.763,0.811c0.973,0.033 1.947,0 2.904,-0.032c0.632,-0.032 1.119,-0.373 1.476,-0.876c0.6,-0.827 0.438,-1.85 -0.422,-2.385c-0.373,-0.227 -0.843,-0.405 -1.281,-0.438c-0.941,-0.081 -1.882,-0.065 -2.823,-0.065c-0.503,0 -0.584,0.114 -0.601,0.649c-0.032,0.389 -0.016,0.795 -0.016,1.201Zm0.033,-4.932l-0.033,-0l0,1.216c0,0.373 0.195,0.633 0.584,0.617c0.974,-0.033 1.947,-0.016 2.888,-0.146c0.909,-0.13 1.347,-0.714 1.363,-1.623c0.016,-0.892 -0.325,-1.395 -1.314,-1.525c-1.039,-0.129 -2.093,-0.097 -3.131,-0.097c-0.374,0 -0.503,0.243 -0.439,0.6c0.065,0.309 0.065,0.649 0.082,0.958Z" style="fill:#fff;fill-rule:nonzero;"/><path d="M103.695,185.122c0,-1.541 -0.016,-3.083 0,-4.624c0,-0.795 0.081,-0.892 0.893,-0.908c1.379,-0.017 2.758,-0.033 4.137,0.048c1.979,0.114 3.471,1.363 3.926,3.294c0.389,1.655 0.324,3.326 -0.276,4.948c-0.665,1.785 -1.979,2.726 -3.878,2.79c-1.314,0.05 -2.644,0.033 -3.974,0.017c-0.747,-0.017 -0.844,-0.114 -0.844,-0.86c0,-1.574 0,-3.131 0.016,-4.705Zm1.59,0.033c-0.016,1.103 -0.016,2.206 -0.016,3.325c0.016,0.877 0.065,0.941 0.908,0.941c0.649,0 1.298,-0.032 1.947,-0.032c1.185,-0 2.028,-0.568 2.564,-1.558c0.957,-1.785 0.941,-3.634 -0.017,-5.418c-0.503,-0.941 -1.346,-1.444 -2.449,-1.444c-0.73,-0 -1.46,-0.017 -2.191,-0.017c-0.665,0 -0.73,0.049 -0.746,0.747c-0.016,1.135 0,2.287 0,3.456Z" style="fill:#fff;fill-rule:nonzero;"/><path d="M135.932,206.504l-0,-2.919c-0,-0.211 -0,-0.438 0.048,-0.649c0.147,-0.634 0.666,-0.796 1.136,-0.341c0.487,0.471 0.487,0.471 1.038,0.097c0.195,-0.13 0.406,-0.276 0.617,-0.373c0.406,-0.179 0.779,-0.179 1.103,0.195c0.179,0.227 0.357,0.34 0.682,0.114c0.778,-0.536 1.168,-0.407 1.492,0.519c0.487,1.427 0.941,2.871 1.428,4.315c0.097,0.292 0.292,0.535 0.438,0.812c0.162,-0.277 0.373,-0.52 0.47,-0.812c0.455,-1.298 0.877,-2.612 1.331,-3.91c0.097,-0.309 0.211,-0.616 0.373,-0.893c0.243,-0.421 0.6,-0.534 0.957,-0.388c0.373,0.145 0.454,0.388 0.243,0.957c-0.535,1.475 -1.087,2.936 -1.622,4.412c-0.227,0.634 -0.454,1.265 -0.698,1.899c-0.275,0.729 -0.503,0.893 -1.087,0.876c-0.616,-0.016 -0.892,-0.228 -1.151,-0.941c-0.666,-1.834 -1.315,-3.666 -1.98,-5.5c-0.048,-0.146 -0.113,-0.308 -0.162,-0.455c-0.097,-0.276 -0.243,-0.372 -0.552,-0.226c-0.34,0.162 -0.713,0.259 -1.07,0.373c-1.12,0.389 -1.59,0.973 -1.606,2.157c-0.033,1.25 -0,2.482 -0.017,3.732c0,0.713 -0.34,0.958 -1.022,0.763c-0.373,-0.114 -0.438,-0.358 -0.422,-0.682l0,-3.163c0.017,0.031 0.033,0.031 0.033,0.031Z" style="fill:#fff;fill-rule:nonzero;"/><path d="M175.502,165.378l0,-4.705c0,-0.649 0.162,-0.811 0.713,-0.811c0.503,-0 0.681,0.162 0.681,0.681c0,0.779 -0.031,1.574 -0.016,2.352c0.016,0.585 0.098,0.633 0.617,0.357c0.714,-0.389 1.443,-0.6 2.255,-0.503c1.136,0.13 2.028,0.682 2.482,1.72c0.86,1.947 0.763,3.845 -0.535,5.597c-0.989,1.314 -2.759,1.623 -4.121,0.73c-0.422,-0.275 -0.665,-0.324 -1.039,0.065c-0.145,0.163 -0.534,0.244 -0.713,0.163c-0.162,-0.082 -0.292,-0.439 -0.292,-0.666c-0.017,-1.654 -0.017,-3.293 -0.017,-4.948c0,-0.032 0,-0.032 -0.015,-0.032Zm1.282,1.606c0.031,0.276 0.112,0.697 0.129,1.119c0.048,1.12 1.298,2.044 2.613,1.801c0.534,-0.097 0.989,-0.373 1.2,-0.86c0.568,-1.346 0.665,-2.725 0.048,-4.072c-0.389,-0.876 -1.152,-1.184 -2.077,-0.941c-1.151,0.308 -1.736,0.974 -1.865,2.142c-0.033,0.211 -0.033,0.438 -0.048,0.811Z" style="fill:#fff;fill-rule:nonzero;"/><path d="M151.636,192.795l0,-8.338c0,-0.325 -0.032,-0.649 0.017,-0.974c0.048,-0.308 0.097,-0.713 0.308,-0.859c0.308,-0.228 0.584,0.113 0.811,0.34c0.227,0.26 0.454,0.227 0.714,0.065c0.162,-0.097 0.324,-0.195 0.487,-0.292c1.233,-0.698 2.66,-0.47 3.617,0.568c0.568,0.616 0.941,1.314 1.039,2.158c0.194,1.605 0.13,3.147 -1.006,4.428c-0.227,0.26 -0.487,0.503 -0.779,0.698c-1.168,0.746 -2.012,0.714 -3.147,-0.081c-0.179,-0.114 -0.357,-0.227 -0.536,-0.341c-0.064,0.227 -0.178,0.455 -0.178,0.682c-0.032,0.843 -0.016,1.671 -0.032,2.515c-0,0.276 -0.065,0.536 -0.374,0.648c-0.47,0.179 -0.859,-0.048 -0.924,-0.567c-0.033,-0.212 -0.017,-0.438 -0.017,-0.65Zm5.727,-6.261c-0.162,-0.585 -0.259,-1.266 -0.519,-1.866c-0.324,-0.73 -1.006,-1.071 -1.784,-1.039c-0.763,0.033 -1.396,0.406 -1.688,1.185c-0.454,1.168 -0.519,2.368 -0.162,3.569c0.211,0.698 0.681,1.087 1.379,1.184c0.26,0.033 0.535,0.033 0.811,0.033c0.747,-0.016 1.314,-0.357 1.542,-1.088c0.162,-0.615 0.259,-1.249 0.421,-1.978Z" style="fill:#fff;fill-rule:nonzero;"/><path d="M134.634,187.263c-0.568,0 -1.136,-0.016 -1.704,0c-0.616,0.017 -0.762,0.195 -0.616,0.812c0.146,0.665 0.47,1.232 1.168,1.444c0.844,0.26 1.655,0.179 2.369,-0.422c0.162,-0.147 0.292,-0.325 0.438,-0.471c0.13,-0.129 0.276,-0.308 0.438,-0.341c0.276,-0.032 0.6,-0.032 0.827,0.082c0.098,0.049 0.065,0.502 -0.032,0.714c-0.633,1.492 -2.628,2.352 -4.235,1.849c-1.509,-0.47 -2.596,-1.833 -2.709,-3.407c-0.114,-1.412 0.081,-2.758 1.038,-3.894c1.071,-1.265 2.726,-1.671 4.251,-1.005c1.428,0.616 2.32,2.205 2.158,3.747c-0.049,0.454 -0.292,0.666 -0.73,0.714c-0.244,0.033 -0.487,0.097 -0.714,0.097c-0.649,0.017 -1.298,0 -1.947,0l-0,0.081Zm-0.422,-1.248l0,-0.033c0.503,-0 1.022,0.033 1.525,-0.017c0.519,-0.048 0.633,-0.259 0.536,-0.762c-0.195,-0.941 -0.941,-1.541 -1.899,-1.541c-0.989,-0 -1.882,0.714 -2.044,1.622c-0.081,0.486 0.065,0.681 0.584,0.714c0.438,0.032 0.876,0.017 1.298,0.017Z" style="fill:#fff;fill-rule:nonzero;"/><path d="M118.313,187.263c-0.617,0 -1.249,-0.016 -1.866,0c-0.584,0.017 -0.697,0.179 -0.616,0.763c0.129,0.795 0.567,1.331 1.362,1.541c0.925,0.26 1.769,0.098 2.45,-0.632c0.211,-0.211 0.39,-0.438 0.633,-0.633c0.259,-0.212 0.552,-0.179 0.827,0.016c0.276,0.194 0.26,0.487 0.13,0.73c-0.178,0.324 -0.373,0.681 -0.633,0.924c-2.417,2.32 -5.467,0.764 -6.116,-1.378c-0.422,-1.363 -0.373,-2.71 0.178,-4.04c0.925,-2.255 3.618,-2.92 5.614,-1.46c1.103,0.811 1.346,2.044 1.346,3.326c0,0.455 -0.292,0.681 -0.713,0.714c-0.86,0.065 -1.72,0.113 -2.58,0.178c-0.016,-0.016 -0.016,-0.032 -0.016,-0.049Zm-0.455,-1.248c0.487,-0.017 0.974,0.015 1.461,-0.017c0.665,-0.033 0.778,-0.243 0.6,-0.893c-0.292,-0.973 -1.038,-1.492 -2.077,-1.427c-0.989,0.065 -1.784,0.746 -1.947,1.655c-0.097,0.503 0.017,0.649 0.52,0.682c0.47,0.015 0.957,-0 1.443,-0Z" style="fill:#fff;fill-rule:nonzero;"/><path d="M159.813,186.842c0.065,-0.908 0.227,-1.785 0.665,-2.58c1.282,-2.369 4.105,-2.401 5.663,-0.973c0.957,0.876 1.103,2.06 1.055,3.277c-0.017,0.34 -0.228,0.552 -0.569,0.568c-0.584,0.048 -1.184,0.097 -1.768,0.113c-0.893,0.016 -1.785,-0 -2.677,0.016c-0.73,0.017 -0.844,0.195 -0.633,0.893c0.454,1.542 2.434,2.011 3.667,0.892c0.243,-0.21 0.437,-0.486 0.649,-0.713c0.243,-0.276 0.567,-0.374 0.876,-0.164c0.291,0.196 0.243,0.536 0.129,0.812c-0.259,0.617 -0.648,1.136 -1.217,1.477c-2.644,1.606 -5.012,-0.147 -5.548,-2.061c-0.146,-0.487 -0.211,-1.022 -0.292,-1.557Zm3.731,-0.844c0,0.017 0,0.017 0,0c0.536,0.017 1.087,0.032 1.623,0c0.503,-0.033 0.6,-0.195 0.503,-0.698c-0.179,-1.054 -1.022,-1.703 -2.158,-1.654c-1.022,0.032 -1.882,0.811 -2.012,1.784c-0.048,0.39 0.13,0.552 0.487,0.568c0.536,0.017 1.055,0 1.557,0Z" style="fill:#fff;fill-rule:nonzero;"/><path d="M131.422,167.438c-0.698,0 -1.396,-0.016 -2.11,0c-0.632,0.033 -0.762,0.211 -0.648,0.811c0.146,0.714 0.405,1.379 1.184,1.606c0.827,0.244 1.671,0.228 2.369,-0.373c0.211,-0.178 0.357,-0.389 0.551,-0.584c0.13,-0.13 0.243,-0.292 0.406,-0.389c0.259,-0.179 0.584,-0.325 0.811,-0.065c0.13,0.162 0.113,0.487 0.081,0.73c-0.016,0.178 -0.162,0.341 -0.259,0.503c-0.942,1.493 -2.369,1.785 -3.959,1.541c-1.412,-0.211 -2.239,-1.2 -2.645,-2.466c-0.438,-1.427 -0.357,-2.871 0.406,-4.234c1.265,-2.255 4.315,-2.239 5.792,-0.763c0.324,0.325 0.552,0.795 0.714,1.233c0.146,0.39 0.162,0.844 0.211,1.266c0.113,0.973 0.048,1.054 -0.958,1.103c-0.649,0.032 -1.297,-0 -1.946,-0l-0,0.081Zm-0.682,-1.071l0,-0.032l1.217,-0c0.081,-0 0.162,-0 0.243,-0.016c0.714,-0.065 0.86,-0.276 0.617,-0.941c-0.325,-0.909 -1.152,-1.493 -2.109,-1.46c-0.941,0.032 -1.866,0.811 -2.093,1.735c-0.097,0.374 0.016,0.552 0.438,0.601c0.568,0.081 1.136,0.081 1.687,0.113Z" style="fill:#fff;fill-rule:nonzero;"/><path d="M170.943,167.438c-0.731,0 -1.46,-0.016 -2.191,0c-0.503,0.016 -0.615,0.179 -0.551,0.665c0.113,0.795 0.438,1.493 1.249,1.752c0.909,0.309 1.769,0.13 2.482,-0.519c0.179,-0.162 0.293,-0.389 0.471,-0.551c0.129,-0.13 0.275,-0.309 0.438,-0.325c0.243,-0.032 0.568,-0.049 0.746,0.081c0.114,0.081 0.114,0.471 0.017,0.665c-0.569,1.12 -1.363,1.947 -2.71,2.028c-0.194,0.017 -0.373,0.017 -0.568,0.017c-1.946,0.016 -3.325,-1.12 -3.683,-3.05c-0.226,-1.233 -0.081,-2.418 0.487,-3.553c1.217,-2.401 4.316,-2.304 5.711,-1.071c0.649,0.584 0.86,1.346 0.989,2.158c0.244,1.557 0.163,1.654 -1.427,1.671l-1.46,-0l-0,0.032Zm-0.569,-1.152l0,0.049c0.439,-0 0.86,0.016 1.298,-0c0.779,-0.033 0.941,-0.292 0.682,-1.022c-0.324,-0.86 -1.168,-1.412 -2.076,-1.363c-0.909,0.049 -1.834,0.811 -2.045,1.687c-0.096,0.422 0.016,0.617 0.471,0.649c0.551,0.033 1.119,0 1.67,0Z" style="fill:#fff;fill-rule:nonzero;"/><path d="M164.794,206.894c-0.73,0 -1.46,-0.016 -2.19,0c-0.665,0.017 -0.747,0.114 -0.601,0.796c0.163,0.777 0.519,1.46 1.315,1.703c0.876,0.275 1.72,0.081 2.401,-0.552c0.194,-0.179 0.324,-0.438 0.519,-0.617c0.179,-0.145 0.389,-0.308 0.6,-0.341c0.551,-0.097 0.844,0.26 0.616,0.763c-0.389,0.828 -0.973,1.509 -1.882,1.801c-3.05,0.99 -4.883,-1.022 -5.11,-3.033c-0.13,-1.234 -0.016,-2.434 0.6,-3.538c0.779,-1.379 2.223,-1.979 3.976,-1.655c1.475,0.276 2.416,1.298 2.644,2.889c0.048,0.341 0.097,0.698 0.081,1.054c-0,0.568 -0.162,0.714 -0.731,0.714c-0.729,0.033 -1.492,0.033 -2.238,0.016Zm-0.649,-1.103l-0,0.017l1.703,-0c0.309,-0 0.519,-0.114 0.488,-0.488c-0.098,-1.086 -0.958,-1.898 -2.029,-1.946c-1.071,-0.033 -2.109,0.795 -2.271,1.817c-0.065,0.453 0.016,0.567 0.519,0.584c0.503,0.033 1.039,0.016 1.59,0.016Z" style="fill:#fff;fill-rule:nonzero;"/><path d="M150.128,186.534c-0.082,0.892 -0.228,1.735 -0.617,2.53c-0.633,1.33 -1.979,2.206 -3.374,2.077c-1.542,-0.13 -2.742,-0.86 -3.261,-2.369c-0.552,-1.59 -0.471,-3.195 0.324,-4.705c0.73,-1.379 2.012,-1.833 3.472,-1.752c1.428,0.081 2.515,0.811 3.034,2.19c0.227,0.633 0.276,1.348 0.422,2.029Zm-1.444,-0.016c-0.114,-0.536 -0.163,-1.169 -0.39,-1.737c-0.535,-1.314 -2.32,-1.638 -3.326,-0.649c-1.07,1.055 -1.314,3.343 -0.486,4.608c0.519,0.811 1.281,1.022 2.174,0.941c0.876,-0.081 1.46,-0.569 1.703,-1.396c0.146,-0.55 0.211,-1.119 0.325,-1.767Z" style="fill:#fff;fill-rule:nonzero;"/><path d="M176.913,191.158c-0.746,-0 -1.444,-0.179 -2.077,-0.585c-0.6,-0.373 -1.006,-0.908 -1.103,-1.623c-0.048,-0.324 -0.081,-0.681 0.309,-0.827c0.324,-0.129 0.567,0.065 0.778,0.308c0.113,0.147 0.227,0.309 0.341,0.455c0.763,0.908 2.255,1.136 3.245,0.503c0.616,-0.406 0.648,-1.136 0.015,-1.509c-0.291,-0.178 -0.648,-0.276 -0.972,-0.39c-0.665,-0.21 -1.363,-0.372 -2.029,-0.6c-0.827,-0.275 -1.541,-0.73 -1.623,-1.72c-0.081,-0.973 0.293,-1.735 1.105,-2.287c1.459,-1.006 3.812,-0.665 4.753,0.681c0.13,0.179 0.226,0.374 0.307,0.568c0.114,0.276 0.098,0.584 -0.193,0.714c-0.212,0.097 -0.552,0.114 -0.747,0.016c-0.292,-0.162 -0.518,-0.47 -0.778,-0.697c-0.585,-0.536 -1.266,-0.714 -2.029,-0.487c-0.486,0.146 -0.843,0.535 -0.876,0.957c-0.032,0.487 0.276,0.763 0.666,0.925c0.6,0.227 1.232,0.389 1.832,0.617c0.553,0.194 1.12,0.405 1.656,0.648c0.454,0.195 0.681,0.601 0.746,1.087c0.162,1.119 -0.146,2.029 -1.12,2.677c-0.648,0.39 -1.394,0.584 -2.206,0.569Z" style="fill:#fff;fill-rule:nonzero;"/><path d="M189.486,186.728l0,-2.677c0,-0.243 0,-0.487 0.033,-0.73c0.114,-0.762 0.486,-0.973 1.103,-0.535c0.486,0.357 0.876,0.276 1.33,-0c0.617,-0.39 1.314,-0.487 2.029,-0.422c1.07,0.097 1.8,0.698 2.092,1.736c0.066,0.259 0.147,0.535 0.147,0.795c0.031,1.671 0.064,3.342 0.048,5.029c-0,0.617 -0.276,0.811 -0.877,0.763c-0.372,-0.033 -0.6,-0.227 -0.648,-0.601c-0.033,-0.243 -0.049,-0.486 -0.049,-0.729c-0,-1.055 0.016,-2.11 0.016,-3.164c0,-0.373 0,-0.763 -0.048,-1.136c-0.114,-1.022 -0.795,-1.541 -1.801,-1.33c-0.714,0.146 -1.606,0.6 -1.703,1.703c-0.065,0.747 -0.081,1.509 -0.098,2.255c-0.016,0.763 0.017,1.508 -0.016,2.272c-0.017,0.519 -0.26,0.697 -0.796,0.697c-0.534,-0 -0.762,-0.178 -0.778,-0.713c-0.016,-1.055 -0,-2.125 0.016,-3.213Z" style="fill:#fff;fill-rule:nonzero;"/><path d="M138.803,162.603c1.169,0.114 2.174,0.373 2.823,1.412c0.081,0.13 0.211,0.292 0.211,0.422c0,0.243 -0.016,0.551 -0.146,0.73c-0.194,0.259 -0.519,0.113 -0.73,-0.065c-0.259,-0.195 -0.47,-0.438 -0.697,-0.682c-0.585,-0.6 -1.85,-0.762 -2.548,-0.324c-0.632,0.389 -0.681,1.233 -0.016,1.574c0.536,0.292 1.152,0.438 1.736,0.632c0.438,0.146 0.892,0.228 1.314,0.39c1.493,0.568 1.947,2.125 1.006,3.423c-0.405,0.568 -0.973,0.99 -1.671,1.055c-0.795,0.064 -1.622,0.081 -2.417,-0c-1.103,-0.114 -1.671,-0.909 -2.028,-1.866c-0.098,-0.276 -0.13,-0.6 0.194,-0.779c0.293,-0.162 0.731,-0.081 0.958,0.179c0.065,0.081 0.113,0.178 0.178,0.275c0.714,1.087 2.142,1.444 3.261,0.795c0.389,-0.227 0.584,-0.551 0.568,-0.989c-0.016,-0.438 -0.26,-0.698 -0.649,-0.828c-0.617,-0.194 -1.233,-0.373 -1.866,-0.568c-0.389,-0.113 -0.778,-0.227 -1.168,-0.357c-0.795,-0.275 -1.298,-0.811 -1.314,-1.654c-0.016,-0.893 0.178,-1.769 1.071,-2.191c0.633,-0.275 1.298,-0.405 1.93,-0.584Z" style="fill:#fff;fill-rule:nonzero;"/><path d="M152.269,206.408l0,-2.839c0,-0.243 0.016,-0.488 0.049,-0.731c0.032,-0.276 0.146,-0.584 0.454,-0.567c0.195,-0 0.454,0.162 0.584,0.324c0.438,0.536 0.438,0.567 0.957,0.178c0.698,-0.502 1.444,-0.681 2.288,-0.6c1.298,0.146 2.093,0.877 2.174,2.19c0.081,1.298 0.065,2.596 0.097,3.894c0.016,0.455 0.033,0.925 0.016,1.379c0,0.601 -0.194,0.796 -0.762,0.811c-0.519,-0 -0.698,-0.162 -0.714,-0.746c-0.016,-0.86 0.016,-1.736 0,-2.596c0,-0.682 -0.016,-1.347 -0.065,-2.028c-0.146,-1.979 -1.525,-1.882 -2.79,-1.282c-0.519,0.244 -0.747,0.779 -0.812,1.331c-0.081,0.697 -0.129,1.395 -0.162,2.093c-0.032,0.843 0.016,1.671 0,2.515c-0.016,0.551 -0.308,0.762 -0.843,0.681c-0.422,-0.065 -0.503,-0.341 -0.503,-0.698c0.032,-1.086 0.032,-2.206 0.032,-3.309Z" style="fill:#fff;fill-rule:nonzero;"/><path d="M129.605,183.224c-0.049,0.178 -0.082,0.47 -0.195,0.746c-0.73,1.947 -1.444,3.91 -2.207,5.84c-0.113,0.309 -0.34,0.633 -0.616,0.812c-0.552,0.341 -1.266,0.032 -1.525,-0.6c-0.763,-1.963 -1.509,-3.926 -2.255,-5.906c-0.13,-0.324 -0.195,-0.681 -0.227,-1.022c-0.033,-0.324 0.162,-0.503 0.486,-0.519c0.503,-0.049 0.909,0.13 1.152,0.6c0.146,0.292 0.244,0.6 0.341,0.909c0.406,1.265 0.795,2.531 1.201,3.78c0.048,0.162 0.097,0.307 0.178,0.454c0.114,0.194 0.276,0.194 0.373,0c0.146,-0.292 0.292,-0.583 0.389,-0.892c0.341,-1.022 0.649,-2.061 0.99,-3.083c0.13,-0.405 0.292,-0.811 0.487,-1.2c0.13,-0.227 0.341,-0.438 0.551,-0.568c0.487,-0.26 0.86,-0.016 0.877,0.649Z" style="fill:#fff;fill-rule:nonzero;"/><path d="M144.011,166.951l0,-2.271c0,-0.422 -0.113,-0.746 -0.6,-0.795c-0.081,-0.016 -0.179,-0.016 -0.227,-0.065c-0.114,-0.13 -0.276,-0.276 -0.292,-0.422c-0.016,-0.097 0.162,-0.308 0.276,-0.34c0.876,-0.146 0.924,-0.763 0.86,-1.461c-0.017,-0.113 -0,-0.21 -0,-0.324c0.048,-0.503 0.308,-0.73 0.794,-0.714c0.439,0.016 0.649,0.244 0.666,0.73c0.016,0.292 -0,0.601 -0.017,0.893c-0.016,0.373 0.098,0.632 0.536,0.648c0.13,0 0.259,0.049 0.389,0.082c0.26,0.081 0.438,0.275 0.373,0.551c-0.048,0.179 -0.227,0.325 -0.357,0.487c-0.032,0.032 -0.097,0.032 -0.146,0.049c-0.762,0.21 -0.778,0.21 -0.778,0.973c-0.017,1.266 0.016,2.531 -0.017,3.813c-0.016,0.567 0.146,0.941 0.714,1.087c0.373,0.097 0.649,0.308 0.568,0.746c-0.081,0.422 -0.422,0.535 -0.779,0.568c-0.989,0.113 -1.687,-0.39 -1.833,-1.395c-0.097,-0.682 -0.065,-1.396 -0.097,-2.093c-0.016,-0.244 -0,-0.487 -0,-0.73c-0.016,-0.017 -0.033,-0.017 -0.033,-0.017Z" style="fill:#fff;fill-rule:nonzero;"/><path d="M139.598,185.074c0,-1.558 -0.016,-3.132 0,-4.689c0,-0.601 0.227,-0.795 0.779,-0.779c0.487,0.016 0.681,0.178 0.73,0.665c0.033,0.243 0.033,0.487 0.033,0.73l-0,8.502c-0,0.162 -0,0.324 -0.017,0.486c-0.048,0.519 -0.227,0.681 -0.697,0.698c-0.519,0.016 -0.763,-0.162 -0.811,-0.682c-0.049,-0.502 -0.049,-1.022 -0.049,-1.541l-0,-3.407c0.016,0.017 0.032,0.017 0.032,0.017Z" style="fill:#fff;fill-rule:nonzero;"/><path d="M133.661,200.567l-0,9.086c-0,0.6 -0.26,0.827 -0.86,0.762c-0.536,-0.049 -0.649,-0.243 -0.649,-0.99c-0,-2.807 0.016,-5.613 0.016,-8.42l-0,-1.054c-0,-0.341 0.178,-0.553 0.503,-0.649c0.568,-0.163 0.941,0.096 0.99,0.697c0.016,0.195 -0,0.373 -0,0.568Z" style="fill:#fff;fill-rule:nonzero;"/><path d="M168.964,186.663l-0,-2.352c-0,-0.357 0.016,-0.698 0.048,-1.055c0.033,-0.308 -0,-0.714 0.39,-0.811c0.405,-0.114 0.551,0.26 0.681,0.552c0.179,0.357 0.372,0.373 0.698,0.146c0.389,-0.276 0.81,-0.536 1.265,-0.698c0.455,-0.162 0.729,0 0.843,0.357c0.146,0.47 -0.016,0.925 -0.421,1.087c-0.227,0.081 -0.471,0.13 -0.715,0.162c-0.713,0.098 -1.103,0.552 -1.265,1.201c-0.114,0.406 -0.162,0.844 -0.178,1.282c-0.032,0.892 -0,1.784 -0,2.676l-0,0.65c-0.032,0.648 -0.21,0.891 -0.682,0.891c-0.454,0 -0.633,-0.243 -0.648,-0.924c-0.016,-0.324 -0,-0.649 -0,-0.974c-0.016,-0.73 -0.016,-1.459 -0.016,-2.19Z" style="fill:#fff;fill-rule:nonzero;"/><path d="M177.74,114.451c-0.437,-0.016 -0.86,-0.016 -1.297,-0.081c-0.536,-0.081 -0.698,-0.259 -0.714,-0.811c-0.017,-0.568 -0,-1.136 -0,-1.704c-0,-0.421 0.21,-0.681 0.632,-0.681c0.812,-0.016 1.623,-0.049 2.417,0c0.503,0.016 0.667,0.211 0.682,0.714c0.033,0.584 0.033,1.184 -0,1.785c-0.015,0.502 -0.179,0.665 -0.698,0.713c-0.341,0.033 -0.697,0 -1.054,0c0.032,0.033 0.032,0.049 0.032,0.065Z" style="fill:#fff;fill-rule:nonzero;"/><path d="M150.209,206.456c-0,1.07 0.016,2.158 -0,3.228c-0.017,0.617 -0.26,0.812 -0.86,0.748c-0.454,-0.05 -0.6,-0.195 -0.617,-0.682c-0.016,-0.666 0,-1.347 0,-2.012c0,-1.477 0.017,-2.969 0.017,-4.445c-0,-0.325 0.016,-0.665 0.357,-0.844c0.535,-0.259 1.07,0.017 1.086,0.617c0.033,1.118 0,2.254 0.017,3.39Z" style="fill:#fff;fill-rule:nonzero;"/><path d="M186.144,186.711l-0,-2.822c-0,-0.243 0.016,-0.487 0.049,-0.73c0.032,-0.292 0.162,-0.519 0.487,-0.552c0.357,-0.032 0.665,0.098 0.762,0.455c0.081,0.275 0.098,0.584 0.098,0.876c0.016,1.589 -0,3.18 -0,4.769c-0,0.405 0.048,0.812 0.032,1.217c-0.016,0.536 -0.244,0.779 -0.714,0.779c-0.486,0.017 -0.698,-0.178 -0.714,-0.762c-0.017,-1.072 -0,-2.142 -0,-3.23Z" style="fill:#fff;fill-rule:nonzero;"/><path d="M186.825,179.557c0.488,0.016 0.844,0.373 0.812,0.795c-0.033,0.406 -0.455,0.86 -0.812,0.876c-0.389,0.016 -0.746,-0.47 -0.713,-0.989c0,-0.438 0.292,-0.698 0.713,-0.682Z" style="fill:#fff;fill-rule:nonzero;"/><path d="M148.732,200.113c-0.016,-0.52 0.292,-0.827 0.779,-0.827c0.422,0.016 0.681,0.274 0.698,0.729c0.016,0.536 -0.325,0.941 -0.795,0.941c-0.406,-0.016 -0.665,-0.341 -0.682,-0.843Z" style="fill:#fff;fill-rule:nonzero;"/></svg>