<svg width="199" height="43" viewBox="0 0 199 43" fill="none" xmlns="http://www.w3.org/2000/svg">
<path d="M62.7331 19.3114C65.0768 19.3114 67.0857 20.4274 68.0901 22.2688L71.6056 20.26C69.8199 17.3025 66.5277 15.4053 62.789 15.4053C56.595 15.4053 52.1309 20.0926 52.1309 26.0633C52.1309 32.0341 56.595 36.7214 62.789 36.7214C66.5835 36.7214 69.8757 34.8242 71.6056 31.8667L68.0901 29.8578C67.1415 31.6435 65.0768 32.7595 62.7331 32.7595C58.7154 32.7595 56.0928 29.9694 56.0928 26.0633C56.0928 22.1014 58.7154 19.3114 62.7331 19.3114Z" fill="white"/>
<path d="M77.9111 24.1661V21.655H74.1166V36.3308H77.9111V29.2998C77.9111 26.2307 80.4222 25.3379 82.3752 25.5611V21.3202C80.478 21.3202 78.6365 22.1572 77.9111 24.1661Z" fill="white"/>
<path d="M90.9687 21.2086C86.3372 21.2086 83.2123 24.5567 83.2123 28.965C83.2123 33.3175 86.3372 36.7214 91.2477 36.7214C94.0377 36.7214 96.2698 35.5496 97.6648 33.5965L94.5958 31.8109C93.9261 32.6479 92.7543 33.2617 91.3035 33.2617C89.2946 33.2617 87.6764 32.4247 87.1741 30.5274H98.2228C98.3344 30.0252 98.3902 29.523 98.3902 28.965C98.3902 24.6683 95.3212 21.2086 90.9687 21.2086ZM87.1184 27.57C87.5648 25.6727 88.9598 24.6125 90.9687 24.6125C92.5311 24.6125 94.1493 25.4495 94.5958 27.57H87.1184Z" fill="white"/>
<path d="M112.062 23.3849C111.001 22.0456 109.439 21.2644 107.263 21.2644C103.357 21.2644 100.12 24.6125 100.12 29.0208C100.12 33.3733 103.357 36.7772 107.263 36.7772C109.383 36.7772 111.001 35.9402 112.062 34.6567V36.3866H115.856V21.7108H112.062V23.3849ZM107.988 33.0943C105.644 33.0943 103.915 31.4203 103.915 28.965C103.915 26.5097 105.644 24.8357 107.988 24.8357C110.332 24.8357 112.062 26.5097 112.062 28.965C112.062 31.4203 110.332 33.0943 107.988 33.0943Z" fill="white"/>
<path d="M124.338 17.5257L120.543 18.6976V21.655H117.976V25.2821H120.543V31.3645C120.543 35.3264 122.329 36.8888 127.63 36.275V32.8153C125.454 32.9269 124.338 32.9269 124.338 31.3087V25.2263H127.63V21.5992H124.338V17.5257Z" fill="white"/>
<path d="M136.893 21.2086C132.262 21.2086 129.137 24.5567 129.137 28.965C129.137 33.3175 132.262 36.7214 137.172 36.7214C139.962 36.7214 142.194 35.5496 143.589 33.5965L140.52 31.8109C139.851 32.6479 138.679 33.2617 137.228 33.2617C135.219 33.2617 133.601 32.4247 133.099 30.5274H144.147C144.259 30.0252 144.315 29.523 144.315 28.965C144.315 24.6683 141.246 21.2086 136.893 21.2086ZM133.043 27.57C133.489 25.6727 134.884 24.6125 136.893 24.6125C138.456 24.6125 140.074 25.4495 140.52 27.57H133.043Z" fill="white"/>
<path d="M152.183 15.7401L144.984 36.275H149.337L150.564 32.5921H158.767L159.995 36.275H164.403L157.205 15.7401H152.183ZM151.904 28.7976L154.694 20.4274L157.484 28.7976H151.904Z" fill="white"/>
<path d="M174.782 21.2086C172.662 21.2086 171.099 21.9898 170.039 23.3291V21.5992H166.245V42.1341H170.039V34.5451C171.099 35.8844 172.662 36.6656 174.782 36.6656C178.688 36.6656 181.925 33.3175 181.925 28.9092C181.925 24.6125 178.688 21.2086 174.782 21.2086ZM174.057 33.0943C171.713 33.0943 169.983 31.4203 169.983 28.965C169.983 26.5097 171.713 24.8357 174.057 24.8357C176.401 24.8357 178.13 26.5097 178.13 28.965C178.13 31.4203 176.401 33.0943 174.057 33.0943Z" fill="white"/>
<path d="M199 28.965C199 24.6683 195.931 21.2086 191.578 21.2086C186.947 21.2086 183.822 24.5567 183.822 28.965C183.822 33.3175 186.947 36.7214 191.857 36.7214C194.648 36.7214 196.88 35.5496 198.275 33.5965L195.206 31.8109C194.536 32.6479 193.364 33.2617 191.913 33.2617C189.904 33.2617 188.286 32.4247 187.784 30.5274H198.833C198.944 30.0252 199 29.523 199 28.965ZM187.728 27.57C188.175 25.6727 189.57 24.6125 191.578 24.6125C193.141 24.6125 194.759 25.4495 195.206 27.57H187.728Z" fill="white"/>
<path d="M41.8659 36.2751H35.0023C35.0023 36.2751 35.4487 33.2618 34.2211 31.532C34.0537 34.1547 32.7703 36.2751 32.7703 36.2751H24.9023C24.9023 36.2751 26.9111 34.7685 27.1343 31.5878C25.7951 31.4762 24.5117 31.0856 23.284 30.5276C23.9537 27.6817 25.0697 25.5054 26.2415 23.8872C22.6702 25.6728 20.2707 28.7977 19.2105 31.811C20.2149 32.4248 21.7774 33.4292 22.5586 33.9315V33.9873L21.4984 36.2193H13.5188C12.068 30.3602 12.6818 27.2353 14.3558 22.269C8.66408 25.5612 7.54808 31.8668 7.54808 31.8668L10.0591 32.2016L10.3381 36.2193H0.293897C-0.0409112 28.9651 0.740267 24.3336 2.69332 20.1485C3.64194 24.3894 8.38508 25.338 11.789 22.6596C11.8448 22.6038 11.9005 22.6038 11.9563 22.548C8.05023 23.9988 3.64195 21.7668 4.03256 17.47C4.03256 17.3584 4.03256 17.3026 4.03256 17.191C4.14416 16.1308 4.64639 14.7916 5.37181 13.7314C3.80937 9.04404 5.81818 4.02191 9.16626 0.673828C13.1282 2.79428 15.8625 5.24954 17.8713 7.14679C23.5631 8.98824 31.3753 11.2761 36.0068 16.9678C41.2521 23.6082 42.3123 29.858 41.8659 36.2751Z" fill="#00FF99"/>
</svg>
