<?xml version="1.0" encoding="UTF-8" standalone="no"?><!DOCTYPE svg PUBLIC "-//W3C//DTD SVG 1.1//EN" "http://www.w3.org/Graphics/SVG/1.1/DTD/svg11.dtd"><svg width="100%" height="100%" viewBox="0 0 300 300" version="1.1" xmlns="http://www.w3.org/2000/svg" xmlns:xlink="http://www.w3.org/1999/xlink" xml:space="preserve" xmlns:serif="http://www.serif.com/" style="fill-rule:evenodd;clip-rule:evenodd;stroke-linejoin:round;stroke-miterlimit:2;"><path d="M137.378,196.591c0.552,0.184 0.898,0.498 1.096,1.023c0.116,0.306 0.261,0.6 0.391,0.901c1.171,2.731 2.356,5.457 3.501,8.197c0.24,0.577 0.567,0.777 1.186,0.768c2.273,-0.033 4.548,-0.013 6.821,-0.013l-0,0.005c2.318,0 4.636,-0.013 6.952,0.011c0.49,0.005 0.791,-0.147 0.942,-0.609c0.048,-0.144 0.122,-0.28 0.179,-0.422c0.526,-1.296 1.049,-2.593 1.576,-3.887c0.685,-1.679 1.383,-3.352 2.054,-5.037c0.204,-0.509 0.537,-0.736 1.078,-0.795c1.207,-0.133 1.916,-0.84 2.031,-2.024c0.091,-0.923 -0.249,-1.69 -1.05,-2.18c-0.808,-0.494 -1.668,-0.532 -2.479,-0.004c-0.798,0.519 -1.211,1.293 -1.058,2.236c0.083,0.506 -0.071,0.773 -0.431,1.048c-0.854,0.646 -1.691,1.315 -2.535,1.975c-0.602,0.471 -1.201,0.949 -1.808,1.413c-0.567,0.434 -0.594,0.418 -0.852,-0.22c-0.222,-0.546 -0.458,-1.087 -0.693,-1.629c-0.881,-2.022 -1.759,-4.048 -2.654,-6.064c-0.146,-0.329 -0.142,-0.579 0.155,-0.803c0.086,-0.063 0.155,-0.154 0.228,-0.235c0.641,-0.695 0.794,-1.48 0.445,-2.364c-0.369,-0.935 -1.06,-1.426 -2.052,-1.468c-0.957,-0.04 -1.701,0.353 -2.155,1.214c-0.466,0.883 -0.466,1.8 0.261,2.485c0.683,0.643 0.601,1.158 0.246,1.925c-0.997,2.162 -1.891,4.371 -2.828,6.561c-0.104,0.241 -0.219,0.477 -0.332,0.713c-0.113,0.239 -0.269,0.248 -0.469,0.094c-0.382,-0.293 -0.765,-0.583 -1.156,-0.862c-1.049,-0.751 -2.104,-1.493 -3.151,-2.245c-0.58,-0.415 -0.599,-0.462 -0.382,-1.139c0.131,-0.412 0.13,-0.809 0.037,-1.226c-0.238,-1.067 -1.163,-1.79 -2.371,-1.773c-1.08,0.016 -2.001,0.886 -2.193,2.005c-0.17,1.026 0.431,2.08 1.47,2.425Z" style="fill:#fff;fill-rule:nonzero;"/><path d="M156.734,223.284c-0.099,-0.031 -0.216,-0.005 -0.324,0c-0.501,0.026 -1.003,0.039 -1.501,0.084c-0.551,0.049 -0.901,-0.178 -1.145,-0.673c-0.424,-0.861 -0.884,-1.705 -1.341,-2.549c-0.098,-0.183 -0.247,-0.338 -0.371,-0.504c-0.157,0.171 -0.357,0.32 -0.462,0.52c-0.418,0.791 -0.838,1.584 -1.192,2.404c-0.257,0.597 -0.676,0.818 -1.281,0.793c-0.697,-0.028 -1.395,-0.06 -2.092,-0.072c-0.11,-0.003 -0.244,0.068 -0.324,0.148c-0.029,0.029 0.04,0.202 0.105,0.274c0.128,0.147 0.279,0.276 0.429,0.402c0.466,0.397 0.912,0.82 1.409,1.172c0.633,0.448 0.738,1.008 0.571,1.718c-0.159,0.677 -0.246,1.371 -0.376,2.116c0.038,0.095 0.057,0.303 0.149,0.34c0.1,0.043 0.279,-0.05 0.399,-0.122c0.243,-0.146 0.47,-0.318 0.706,-0.478c0.489,-0.329 0.987,-0.644 1.464,-0.991c0.338,-0.245 0.638,-0.209 0.96,0.013c0.414,0.284 0.834,0.562 1.258,0.829c0.387,0.245 0.779,0.482 1.181,0.703c0.097,0.052 0.239,0.024 0.36,0.032c-0.002,-0.102 0.011,-0.209 -0.008,-0.308c-0.137,-0.684 -0.211,-1.39 -0.44,-2.044c-0.345,-0.991 0.071,-1.634 0.798,-2.198c0.07,-0.054 0.143,-0.102 0.207,-0.16c0.353,-0.326 0.709,-0.649 1.053,-0.984c0.07,-0.069 0.148,-0.23 0.118,-0.275c-0.065,-0.09 -0.194,-0.155 -0.31,-0.19Z" style="fill:#fff;fill-rule:nonzero;"/><path d="M205.006,189.495c0.517,0.438 1.021,0.89 1.559,1.3c0.376,0.285 0.516,0.629 0.453,1.078c-0.023,0.172 -0.05,0.344 -0.081,0.515c-0.112,0.666 -0.227,1.333 -0.329,1.936c-0,0.129 -0.005,0.194 0.001,0.26c0.025,0.275 0.142,0.341 0.391,0.189c0.298,-0.181 0.578,-0.393 0.867,-0.589c0.449,-0.308 0.907,-0.606 1.346,-0.929c0.37,-0.272 0.71,-0.267 1.079,-0.002c0.389,0.278 0.795,0.54 1.201,0.795c0.407,0.254 0.821,0.5 1.239,0.734c0.082,0.045 0.204,0.024 0.307,0.035c0.005,-0.101 0.032,-0.207 0.014,-0.302c-0.139,-0.705 -0.222,-1.431 -0.45,-2.108c-0.314,-0.931 0.039,-1.558 0.735,-2.099c0.087,-0.067 0.176,-0.132 0.256,-0.204c0.339,-0.308 0.684,-0.611 1.008,-0.937c0.095,-0.094 0.123,-0.254 0.183,-0.384c-0.138,-0.053 -0.271,-0.121 -0.414,-0.155c-0.102,-0.023 -0.216,0 -0.326,0.006c-0.434,0.028 -0.872,0.034 -1.304,0.087c-0.639,0.081 -1.017,-0.197 -1.29,-0.761c-0.426,-0.886 -0.897,-1.748 -1.362,-2.613c-0.217,-0.403 -0.401,-0.407 -0.655,-0.026c-0.122,0.181 -0.216,0.379 -0.313,0.575c-0.349,0.704 -0.714,1.4 -1.033,2.118c-0.216,0.49 -0.576,0.697 -1.076,0.693c-0.655,-0.005 -1.309,-0.034 -1.962,-0.054c-0.109,-0.004 -0.22,-0.039 -0.324,-0.022c-0.099,0.016 -0.234,0.059 -0.27,0.131c-0.034,0.067 0.012,0.213 0.073,0.282c0.145,0.166 0.311,0.31 0.477,0.451Z" style="fill:#fff;fill-rule:nonzero;"/><path d="M102.514,206.182c0.516,0.439 1.011,0.905 1.559,1.297c0.594,0.424 0.678,0.959 0.538,1.61c-0.132,0.617 -0.246,1.24 -0.332,1.866c-0.03,0.218 0.048,0.45 0.076,0.676c0.192,-0.082 0.401,-0.138 0.573,-0.25c0.694,-0.453 1.379,-0.919 2.06,-1.391c0.293,-0.204 0.567,-0.186 0.851,0.001c0.254,0.168 0.506,0.343 0.765,0.506c0.573,0.359 1.146,0.717 1.728,1.062c0.095,0.054 0.238,0.027 0.36,0.037c-0.003,-0.102 0.011,-0.209 -0.009,-0.308c-0.135,-0.684 -0.213,-1.388 -0.433,-2.044c-0.321,-0.952 0.031,-1.603 0.754,-2.156c0.087,-0.067 0.178,-0.128 0.258,-0.201c0.338,-0.31 0.679,-0.616 1.005,-0.94c0.084,-0.084 0.117,-0.219 0.172,-0.33c-0.129,-0.063 -0.253,-0.141 -0.389,-0.183c-0.077,-0.026 -0.172,0.001 -0.259,0.006c-0.502,0.026 -1.003,0.039 -1.502,0.084c-0.554,0.049 -0.896,-0.185 -1.14,-0.678c-0.426,-0.86 -0.889,-1.701 -1.347,-2.544c-0.099,-0.183 -0.245,-0.339 -0.37,-0.507c-0.155,0.173 -0.351,0.325 -0.456,0.525c-0.427,0.81 -0.854,1.623 -1.229,2.458c-0.243,0.539 -0.628,0.747 -1.184,0.738c-0.327,-0.005 -0.655,-0.001 -0.983,-0.001l-0,-0.013c-0.437,-0 -0.874,-0.013 -1.31,0.005c-0.21,0.008 -0.263,0.149 -0.13,0.312c0.11,0.132 0.242,0.251 0.374,0.363Z" style="fill:#fff;fill-rule:nonzero;"/><path d="M189.255,206.289c0.516,0.438 1.022,0.89 1.56,1.299c0.376,0.284 0.523,0.63 0.456,1.079c-0.056,0.367 -0.127,0.731 -0.186,1.096c-0.076,0.473 -0.158,0.947 -0.213,1.423c-0.017,0.139 0.048,0.286 0.077,0.431c0.137,-0.039 0.293,-0.052 0.412,-0.123c0.262,-0.156 0.508,-0.342 0.76,-0.514c0.45,-0.31 0.908,-0.608 1.348,-0.931c0.371,-0.273 0.711,-0.262 1.08,0.001c0.41,0.292 0.831,0.567 1.257,0.833c0.407,0.253 0.821,0.5 1.247,0.721c0.219,0.114 0.326,0.009 0.275,-0.239c-0.164,-0.813 -0.304,-1.631 -0.518,-2.431c-0.161,-0.6 -0.05,-1.071 0.416,-1.471c0.214,-0.184 0.422,-0.378 0.632,-0.569c0.338,-0.309 0.681,-0.615 1.008,-0.938c0.086,-0.084 0.125,-0.215 0.184,-0.326c-0.124,-0.069 -0.242,-0.163 -0.374,-0.196c-0.123,-0.033 -0.261,-0.004 -0.392,0.003c-0.435,0.025 -0.873,0.037 -1.306,0.083c-0.6,0.065 -0.983,-0.17 -1.25,-0.721c-0.426,-0.884 -0.902,-1.746 -1.366,-2.613c-0.24,-0.449 -0.416,-0.46 -0.687,-0.045c-0.119,0.182 -0.212,0.382 -0.31,0.576c-0.348,0.705 -0.712,1.404 -1.034,2.122c-0.207,0.463 -0.552,0.655 -1.027,0.671c-0.393,0.011 -0.786,0.002 -1.293,0.002c-0.236,-0.018 -0.584,-0.06 -0.933,-0.06c-0.13,-0 -0.262,0.102 -0.393,0.158c0.06,0.11 0.102,0.235 0.184,0.327c0.113,0.13 0.252,0.24 0.386,0.352Z" style="fill:#fff;fill-rule:nonzero;"/><path d="M122.411,217.687c0.532,0.45 1.043,0.934 1.609,1.339c0.593,0.426 0.679,0.959 0.54,1.611c-0.132,0.616 -0.247,1.24 -0.334,1.864c-0.03,0.218 0.047,0.452 0.075,0.678c0.192,-0.082 0.4,-0.136 0.572,-0.248c0.694,-0.453 1.38,-0.919 2.061,-1.391c0.292,-0.204 0.567,-0.189 0.85,-0.002c0.236,0.157 0.47,0.321 0.71,0.47c0.592,0.371 1.184,0.742 1.785,1.096c0.095,0.056 0.239,0.029 0.36,0.041c-0.002,-0.102 0.012,-0.209 -0.008,-0.307c-0.135,-0.684 -0.214,-1.387 -0.435,-2.044c-0.318,-0.951 0.029,-1.604 0.753,-2.156c0.086,-0.066 0.177,-0.129 0.257,-0.203c0.353,-0.325 0.709,-0.648 1.051,-0.983c0.07,-0.068 0.147,-0.23 0.116,-0.275c-0.065,-0.092 -0.195,-0.155 -0.31,-0.19c-0.1,-0.028 -0.217,-0.005 -0.324,0.002c-0.502,0.027 -1.003,0.04 -1.502,0.085c-0.552,0.049 -0.896,-0.182 -1.142,-0.676c-0.425,-0.861 -0.888,-1.702 -1.346,-2.546c-0.1,-0.183 -0.246,-0.341 -0.369,-0.51c-0.155,0.173 -0.35,0.324 -0.457,0.524c-0.428,0.809 -0.854,1.623 -1.23,2.458c-0.242,0.538 -0.626,0.75 -1.182,0.74c-0.327,-0.006 -0.655,-0.002 -0.983,-0.002l-0,-0.014c-0.437,0 -0.874,-0.012 -1.31,0.005c-0.209,0.008 -0.264,0.145 -0.132,0.312c0.094,0.118 0.209,0.222 0.325,0.322Z" style="fill:#fff;fill-rule:nonzero;"/><path d="M169.715,217.74c0.5,0.422 0.978,0.875 1.509,1.255c0.604,0.432 0.733,0.969 0.574,1.657c-0.146,0.637 -0.25,1.284 -0.339,1.932c-0.026,0.191 0.063,0.4 0.1,0.6c0.173,-0.075 0.36,-0.127 0.515,-0.229c0.675,-0.441 1.351,-0.884 2.004,-1.357c0.385,-0.279 0.716,-0.24 1.074,0.021c0.282,0.206 0.575,0.396 0.872,0.583c0.48,0.3 0.962,0.597 1.454,0.884c0.105,0.06 0.244,0.06 0.368,0.089c0.008,-0.118 0.04,-0.243 0.018,-0.355c-0.161,-0.813 -0.318,-1.627 -0.507,-2.431c-0.122,-0.522 -0.014,-0.947 0.379,-1.305c0.226,-0.205 0.452,-0.411 0.676,-0.618c0.369,-0.342 0.749,-0.671 1.098,-1.031c0.217,-0.222 0.145,-0.395 -0.161,-0.442c-0.126,-0.021 -0.261,-0.008 -0.391,-0c-0.501,0.023 -1.002,0.034 -1.502,0.08c-0.56,0.049 -0.891,-0.206 -1.131,-0.693c-0.404,-0.822 -0.843,-1.629 -1.283,-2.433c-0.118,-0.216 -0.293,-0.401 -0.443,-0.601c-0.161,0.197 -0.361,0.374 -0.478,0.596c-0.416,0.791 -0.828,1.587 -1.197,2.403c-0.242,0.535 -0.62,0.753 -1.187,0.722c-0.304,-0.018 -0.611,-0.003 -0.917,-0.003l-0,-0.021c-0.415,-0 -0.83,-0.007 -1.244,0.004c-0.1,0.002 -0.197,0.062 -0.296,0.097c0.048,0.111 0.078,0.236 0.147,0.331c0.078,0.101 0.188,0.181 0.288,0.265Z" style="fill:#fff;fill-rule:nonzero;"/><path d="M86.444,189.074c0.075,0.105 0.181,0.19 0.281,0.274c0.517,0.436 1.009,0.912 1.565,1.297c0.624,0.432 0.719,0.975 0.571,1.655c-0.14,0.64 -0.247,1.287 -0.335,1.935c-0.026,0.193 0.063,0.401 0.1,0.601c0.173,-0.075 0.362,-0.127 0.517,-0.231c0.673,-0.449 1.34,-0.906 2,-1.373c0.353,-0.249 0.678,-0.237 1.026,0.006c0.394,0.278 0.796,0.544 1.202,0.799c0.407,0.256 0.822,0.5 1.242,0.734c0.085,0.048 0.206,0.034 0.31,0.048c0.008,-0.101 0.038,-0.206 0.018,-0.303c-0.156,-0.792 -0.29,-1.591 -0.493,-2.372c-0.157,-0.598 -0.048,-1.073 0.417,-1.475c0.181,-0.157 0.35,-0.329 0.528,-0.49c0.371,-0.339 0.75,-0.67 1.113,-1.017c0.086,-0.082 0.2,-0.276 0.17,-0.316c-0.081,-0.102 -0.227,-0.174 -0.361,-0.21c-0.122,-0.032 -0.26,-0.005 -0.391,0.002c-0.436,0.026 -0.874,0.036 -1.307,0.082c-0.601,0.064 -0.986,-0.169 -1.249,-0.722c-0.397,-0.827 -0.843,-1.631 -1.281,-2.437c-0.109,-0.201 -0.268,-0.378 -0.403,-0.565c-0.166,0.192 -0.373,0.364 -0.489,0.582c-0.427,0.813 -0.842,1.633 -1.229,2.465c-0.225,0.482 -0.571,0.69 -1.087,0.671c-0.349,-0.011 -0.7,-0.002 -1.05,-0.002l-0,-0.014c-0.416,-0 -0.831,-0.005 -1.247,0.004c-0.079,0.001 -0.222,0.052 -0.223,0.086c-0.004,0.097 0.029,0.208 0.085,0.286Z" style="fill:#fff;fill-rule:nonzero;"/><path d="M117.722,108.836c-0.238,-0.154 -0.502,-0.268 -0.743,-0.416c-0.67,-0.411 -1.364,-0.789 -1.994,-1.255c-1.214,-0.896 -2.334,-1.903 -3.338,-3.039c-0.622,-0.704 -1.295,-1.365 -1.989,-1.997c-0.499,-0.452 -1.038,-0.879 -1.617,-1.223c-1.1,-0.654 -1.981,-0.634 -2.974,0.143c-0.36,0.282 -0.674,0.624 -1.021,0.922c-0.398,0.339 -0.78,0.712 -1.222,0.983c-1.149,0.7 -2.011,0.615 -2.961,-0.305c-0.298,-0.289 -0.586,-0.591 -0.883,-0.879c-0.125,-0.121 -0.26,-0.234 -0.405,-0.331c-0.216,-0.146 -0.456,-0.163 -0.682,-0.028c-0.818,0.487 -1.334,1.18 -0.814,2.239c0.105,0.216 0.225,0.43 0.375,0.615c0.734,0.903 1.645,1.569 2.748,1.943c0.724,0.246 1.481,0.494 2.235,0.164c0.493,-0.215 0.945,-0.532 1.401,-0.825c0.313,-0.199 0.591,-0.451 0.903,-0.651c1.365,-0.874 2.68,-0.81 3.928,0.23c0.587,0.488 1.119,1.04 1.676,1.563c0.734,0.686 1.44,1.405 2.211,2.047c0.807,0.672 1.77,1.02 3.096,1.101c0.512,-0.139 1.268,-0.341 2.02,-0.552c0.097,-0.028 0.181,-0.106 0.27,-0.162c-0.072,-0.098 -0.125,-0.225 -0.22,-0.287Z" style="fill:#fff;fill-rule:nonzero;"/><path d="M122.604,101.402c-0.494,-0.198 -0.848,0.213 -1.184,0.52c-0.193,0.176 -0.365,0.377 -0.558,0.553c-0.225,0.206 -0.455,0.408 -0.698,0.59c-0.505,0.378 -1.079,0.492 -1.669,0.272c-0.382,-0.143 -0.783,-0.32 -1.078,-0.588c-0.871,-0.79 -1.685,-1.646 -2.542,-2.454c-0.777,-0.734 -1.536,-1.497 -2.381,-2.144c-1.45,-1.11 -3.044,-1.017 -4.645,-0.332c-0.388,0.166 -0.39,0.294 -0.012,0.5c2.094,1.143 3.846,2.707 5.501,4.4c0.777,0.795 1.601,1.547 2.435,2.285c0.955,0.844 2.048,1.403 2.873,1.405c2.199,-0.009 4.332,-1.464 4.963,-3.068c0.07,-0.177 0.132,-0.39 0.099,-0.569c-0.118,-0.645 -0.516,-1.134 -1.104,-1.37Z" style="fill:#fff;fill-rule:nonzero;"/><path d="M105.846,107.125c-0.754,0.577 -1.581,0.988 -2.472,1.295c-0.181,0.063 -0.359,0.161 -0.513,0.276c-0.218,0.158 -0.229,0.37 -0.033,0.553c0.124,0.117 0.274,0.238 0.433,0.283c0.622,0.176 1.253,0.321 1.882,0.477c0.008,-0.023 0.016,-0.047 0.022,-0.07c0.345,-0.045 0.697,-0.061 1.034,-0.141c0.717,-0.171 1.333,-0.53 1.819,-1.092c0.229,-0.262 0.36,-0.564 0.171,-0.899c-0.476,-0.842 -1.423,-1.387 -2.343,-0.682Z" style="fill:#fff;fill-rule:nonzero;"/><path d="M183.882,104.689c0,-1.508 0.001,-3.018 -0.001,-4.526c-0,-0.218 0.001,-0.438 -0.026,-0.655c-0.079,-0.636 -0.226,-0.75 -0.857,-0.653c-1.137,0.176 -2.262,0.151 -3.383,-0.114c-0.489,-0.116 -0.986,-0.195 -1.483,-0.279c-0.974,-0.165 -1.939,-0.242 -2.913,0.082c-3.633,1.211 -5.117,4.862 -4.163,7.827c0.97,3.014 2.871,4.211 5.742,4.236c0.755,0.006 1.515,-0.187 2.265,-0.326c0.491,-0.092 0.969,-0.262 1.458,-0.378c0.317,-0.076 0.451,0.037 0.329,0.329c-0.252,0.6 -0.503,1.22 -0.878,1.742c-0.645,0.9 -1.533,1.431 -2.7,1.29c-0.735,-0.088 -1.469,-0.186 -2.199,-0.306c-0.6,-0.098 -1.191,-0.27 -1.794,-0.346c-0.46,-0.058 -0.779,0.198 -0.962,0.634c-0.293,0.701 -0.162,1.226 0.493,1.633c1.693,1.055 3.543,1.501 5.518,1.228c1.919,-0.265 3.431,-1.231 4.472,-2.894c0.741,-1.185 1.047,-2.495 1.078,-3.868c0.036,-1.551 0.008,-3.104 0.008,-4.656l-0.004,-0Zm-2.943,0.811c-0.377,1.527 -1.5,2.465 -3.138,2.625c-0.173,0.017 -0.349,0.018 -0.412,0.021c-2.383,0.015 -3.93,-1.851 -3.565,-4.181c0.213,-1.359 0.987,-2.24 2.297,-2.676c1.278,-0.425 2.454,-0.22 3.557,0.512c0.586,0.39 0.967,0.92 1.12,1.628c0.147,0.687 0.314,1.366 0.141,2.071Z" style="fill:#fff;fill-rule:nonzero;"/><path d="M168.539,100.336c-0.674,-0.98 -1.599,-1.517 -2.817,-1.532c-0.751,-0.01 -1.49,0.047 -2.197,0.301c-1.222,0.44 -2.437,0.423 -3.666,0.032c-0.458,-0.146 -0.921,-0.29 -1.393,-0.366c-0.731,-0.117 -1.472,-0.247 -2.208,-0.243c-1.713,0.008 -2.857,0.952 -3.357,2.593c-0.487,1.599 -0.351,3.25 -0.449,4.879c-0.05,0.824 0.047,1.657 0.079,2.487c0.01,0.283 -0,0.571 0.043,0.85c0.097,0.628 0.336,0.872 0.962,0.995c0.211,0.042 0.436,0.051 0.652,0.036c0.621,-0.045 0.965,-0.322 1.108,-0.932c0.079,-0.338 0.11,-0.692 0.113,-1.038c0.012,-1.465 -0.007,-2.931 0.01,-4.396c0.006,-0.477 0.053,-0.96 0.137,-1.432c0.118,-0.661 0.533,-1.077 1.185,-1.264c1.558,-0.444 2.823,0.47 2.862,2.096c0.023,0.897 0.004,1.793 0.004,2.691l0.006,0c-0,0.853 -0.006,1.706 0.002,2.559c0.003,0.261 0.013,0.527 0.063,0.783c0.136,0.69 0.445,0.955 1.158,1.035c0.672,0.076 1.201,-0.188 1.412,-0.802c0.147,-0.426 0.23,-0.891 0.247,-1.343c0.037,-0.983 0.013,-1.967 0.014,-2.951c0,-0.765 -0.01,-1.532 0.004,-2.297c0.012,-0.648 0.246,-1.198 0.807,-1.564c1.234,-0.805 2.847,-0.124 3.086,1.32c0.1,0.601 0.152,1.215 0.164,1.824c0.025,1.334 0.007,2.668 0.011,4.002c-0,0.24 -0.006,0.483 0.028,0.72c0.113,0.785 0.8,1.239 1.578,1.061c0.68,-0.156 1.07,-0.597 1.127,-1.349c0.066,-0.85 0.136,-1.703 0.13,-2.553c-0.009,-1.332 -0.057,-2.666 -0.132,-3.997c-0.044,-0.799 -0.322,-1.546 -0.773,-2.205Z" style="fill:#fff;fill-rule:nonzero;"/><path d="M145.242,98.691c-1.416,-0.428 -2.084,0.021 -2.53,1.208c-0.016,0.041 -0.024,0.084 -0.038,0.127c-0.35,1.034 -0.69,2.071 -1.054,3.101c-0.253,0.72 -0.533,1.432 -0.814,2.143c-0.032,0.083 -0.143,0.134 -0.216,0.2c-0.049,-0.067 -0.106,-0.128 -0.143,-0.201c-0.04,-0.078 -0.058,-0.164 -0.084,-0.248c-0.465,-1.479 -0.914,-2.964 -1.403,-4.434c-0.15,-0.45 -0.378,-0.884 -0.63,-1.289c-0.286,-0.459 -0.742,-0.644 -1.292,-0.627c-0.615,0.02 -1.006,0.365 -1.323,0.84c-0.468,0.703 -0.681,1.508 -0.896,2.31c-0.249,0.928 -0.459,1.873 -1.041,2.668c-0.123,0.168 -0.313,0.286 -0.474,0.428c-0.115,-0.174 -0.271,-0.335 -0.341,-0.526c-0.447,-1.231 -0.874,-2.47 -1.31,-3.705c-0.152,-0.432 -0.29,-0.872 -0.468,-1.293c-0.251,-0.591 -0.739,-0.858 -1.36,-0.83c-0.32,0.016 -0.65,0.101 -0.949,0.22c-0.605,0.237 -0.677,0.464 -0.43,1.061c0.266,0.646 0.553,1.285 0.778,1.945c0.765,2.254 1.503,4.517 2.261,6.773c0.132,0.391 0.294,0.775 0.479,1.146c0.527,1.053 2.064,1.144 2.72,0.148c0.214,-0.324 0.396,-0.683 0.526,-1.049c0.543,-1.521 1.061,-3.051 1.591,-4.578c0.04,-0.117 0.106,-0.225 0.211,-0.442c0.181,0.35 0.349,0.602 0.449,0.881c0.441,1.232 0.856,2.475 1.295,3.709c0.168,0.471 0.348,0.942 0.577,1.386c0.471,0.918 2.26,1.085 2.757,-0.078c0.112,-0.261 0.248,-0.512 0.341,-0.779c0.618,-1.773 1.216,-3.555 1.843,-5.324c0.458,-1.295 0.941,-2.583 1.433,-3.866c0.232,-0.601 0.162,-0.835 -0.465,-1.025Z" style="fill:#fff;fill-rule:nonzero;"/><path d="M190.828,98.339c-2.911,0.718 -5.089,3.42 -5.11,6.314c0.03,0.282 0.042,0.566 0.089,0.845c0.562,3.325 3.778,6.05 7.55,5.551c2.34,-0.31 4.066,-1.511 5.193,-3.55c0.939,-1.703 1.08,-3.474 0.259,-5.284c-1.386,-3.058 -4.716,-4.681 -7.981,-3.876Zm5.155,7.939c-0.597,1.269 -1.608,1.914 -2.994,1.992c-0.776,0.045 -1.53,-0.08 -2.236,-0.409c-0.805,-0.375 -1.401,-0.975 -1.685,-1.827c-0.222,-0.666 -0.365,-1.356 -0.25,-2.063c0.287,-1.781 1.589,-2.903 3.392,-2.94c0.088,-0.001 0.174,-0 0.263,-0c0,-0.008 0.002,-0.015 0.002,-0.023c0.347,0.029 0.702,0.024 1.041,0.092c1.529,0.309 2.431,1.28 2.729,2.816c0.161,0.828 0.097,1.601 -0.262,2.362Z" style="fill:#fff;fill-rule:nonzero;"/><path d="M150.55,100.003c-0.012,-0.4 -0.109,-0.782 -0.462,-1.039c-0.53,-0.389 -1.752,-0.367 -2.23,0.081c-0.16,0.151 -0.269,0.4 -0.312,0.623c-0.071,0.363 -0.091,0.738 -0.092,1.108c-0.008,2.382 -0.008,4.763 0.001,7.145c0.002,0.414 0.033,0.831 0.091,1.24c0.122,0.865 0.605,1.323 1.354,1.321c0.851,-0.004 1.409,-0.466 1.535,-1.307c0.061,-0.41 0.09,-0.826 0.095,-1.241c0.012,-1.223 0.004,-2.446 0.004,-3.671l0.025,0l0,-2.359c-0.001,-0.634 0.011,-1.268 -0.009,-1.901Z" style="fill:#fff;fill-rule:nonzero;"/><path d="M148.917,97.162c0.943,-0 1.707,-0.764 1.707,-1.707c-0,-0.942 -0.764,-1.706 -1.707,-1.706c-0.942,0 -1.706,0.764 -1.706,1.706c0,0.943 0.764,1.707 1.706,1.707Z" style="fill:#fff;fill-rule:nonzero;"/><path d="M150.295,42.301c-59.401,-0 -107.556,48.154 -107.556,107.556c0,59.402 48.155,107.556 107.556,107.556c59.402,-0 107.557,-48.154 107.557,-107.556c-0,-59.402 -48.155,-107.556 -107.557,-107.556Zm96.066,106.388c0.009,0.761 -0.601,1.386 -1.363,1.395l-0.016,0c-0.754,0 -1.368,-0.606 -1.377,-1.362c-0.009,-0.76 0.6,-1.385 1.361,-1.394c0.761,-0.009 1.386,0.6 1.395,1.361Zm-0.631,-9.956c0.088,0.756 -0.454,1.439 -1.21,1.526c-0.054,0.007 -0.107,0.009 -0.16,0.009c-0.691,0 -1.287,-0.517 -1.368,-1.219c-0.087,-0.757 0.455,-1.44 1.212,-1.528c0.756,-0.086 1.44,0.456 1.526,1.212Zm-3.301,-10.887c0.742,-0.166 1.479,0.303 1.644,1.046c0.165,0.743 -0.303,1.479 -1.045,1.644c-0.102,0.023 -0.201,0.034 -0.301,0.034c-0.632,0 -1.201,-0.437 -1.344,-1.078c-0.165,-0.743 0.303,-1.48 1.046,-1.646Zm-11.195,-27.188c0.654,-0.386 1.5,-0.168 1.887,0.488c0.386,0.655 0.167,1.5 -0.488,1.886c-0.219,0.13 -0.461,0.192 -0.698,0.192c-0.472,-0 -0.932,-0.243 -1.19,-0.679c-0.386,-0.656 -0.168,-1.501 0.489,-1.887Zm-5.547,-8.124c0.612,-0.453 1.475,-0.323 1.926,0.29c0.453,0.612 0.324,1.475 -0.287,1.927c-0.248,0.182 -0.533,0.27 -0.818,0.27c-0.424,0 -0.84,-0.194 -1.111,-0.559c-0.452,-0.613 -0.322,-1.475 0.29,-1.928Zm-6.356,-7.507c0.562,-0.513 1.433,-0.474 1.947,0.088c0.512,0.563 0.473,1.434 -0.09,1.947c-0.264,0.24 -0.595,0.36 -0.928,0.36c-0.374,-0 -0.746,-0.151 -1.018,-0.449c-0.514,-0.562 -0.474,-1.434 0.089,-1.946Zm-7.097,-6.815c0.506,-0.568 1.378,-0.618 1.944,-0.111c0.568,0.506 0.62,1.377 0.113,1.945c-0.271,0.306 -0.649,0.462 -1.029,0.462c-0.326,-0 -0.654,-0.116 -0.917,-0.349c-0.567,-0.507 -0.618,-1.377 -0.111,-1.947Zm-7.764,-6.044c0.445,-0.618 1.306,-0.757 1.924,-0.312c0.616,0.445 0.757,1.306 0.312,1.923c-0.269,0.374 -0.692,0.573 -1.119,0.573c-0.279,0 -0.561,-0.085 -0.805,-0.259c-0.617,-0.445 -0.757,-1.308 -0.312,-1.925Zm-8.348,-5.209c0.38,-0.66 1.221,-0.888 1.882,-0.51c0.659,0.379 0.888,1.22 0.509,1.881c-0.254,0.444 -0.718,0.693 -1.196,0.693c-0.232,-0 -0.467,-0.058 -0.684,-0.183c-0.66,-0.378 -0.889,-1.22 -0.511,-1.881Zm-8.842,-4.312c0.307,-0.697 1.12,-1.011 1.818,-0.704c0.695,0.307 1.01,1.121 0.703,1.818c-0.228,0.514 -0.733,0.821 -1.262,0.821c-0.186,0 -0.375,-0.038 -0.556,-0.118c-0.697,-0.308 -1.01,-1.122 -0.703,-1.817Zm-9.246,-3.367c0.232,-0.724 1.009,-1.123 1.734,-0.89c0.724,0.234 1.122,1.01 0.888,1.734c-0.187,0.584 -0.728,0.957 -1.311,0.957c-0.14,-0 -0.281,-0.021 -0.422,-0.067c-0.725,-0.234 -1.122,-1.009 -0.889,-1.734Zm-9.546,-2.382c0.154,-0.744 0.885,-1.222 1.631,-1.066c0.743,0.156 1.222,0.888 1.066,1.632c-0.137,0.649 -0.709,1.096 -1.348,1.096c-0.093,-0 -0.189,-0.01 -0.284,-0.031c-0.745,-0.156 -1.222,-0.886 -1.065,-1.631Zm-9.742,-1.373c0.079,-0.757 0.755,-1.308 1.512,-1.23c0.758,0.078 1.309,0.755 1.23,1.512c-0.072,0.709 -0.67,1.238 -1.369,1.237c-0.047,-0 -0.094,-0.002 -0.143,-0.007c-0.757,-0.079 -1.307,-0.754 -1.23,-1.512Zm-8.451,-1.74c0.762,-0 1.379,0.617 1.379,1.378c-0,0.761 -0.617,1.378 -1.379,1.378c-0.761,-0 -1.378,-0.617 -1.378,-1.378c0,-0.761 0.617,-1.378 1.378,-1.378Zm-4.669,0.111c0.761,-0.036 1.407,0.55 1.442,1.31c0.037,0.762 -0.55,1.407 -1.31,1.443c-0.022,0.001 -0.044,0.002 -0.067,0.002c-0.731,0 -1.34,-0.575 -1.375,-1.312c-0.037,-0.76 0.55,-1.406 1.31,-1.443Zm-9.928,0.991c0.752,-0.115 1.454,0.402 1.57,1.154c0.114,0.753 -0.403,1.455 -1.155,1.571c-0.069,0.011 -0.14,0.016 -0.209,0.016c-0.669,-0 -1.257,-0.488 -1.361,-1.171c-0.115,-0.752 0.402,-1.455 1.155,-1.57Zm-9.774,2.016c0.737,-0.191 1.489,0.248 1.682,0.985c0.193,0.736 -0.248,1.489 -0.985,1.682c-0.116,0.03 -0.233,0.045 -0.349,0.045c-0.611,-0 -1.171,-0.41 -1.332,-1.029c-0.193,-0.736 0.248,-1.49 0.984,-1.683Zm-9.511,3.027c0.713,-0.268 1.508,0.092 1.776,0.804c0.269,0.712 -0.091,1.507 -0.803,1.775c-0.161,0.06 -0.325,0.089 -0.486,0.089c-0.558,0 -1.081,-0.34 -1.29,-0.892c-0.268,-0.712 0.092,-1.507 0.803,-1.776Zm-9.141,4.004c0.68,-0.341 1.508,-0.067 1.849,0.614c0.341,0.68 0.067,1.508 -0.614,1.85c-0.198,0.099 -0.408,0.147 -0.617,0.147c-0.504,-0 -0.991,-0.279 -1.232,-0.762c-0.342,-0.679 -0.067,-1.508 0.614,-1.849Zm-8.674,4.932c0.64,-0.409 1.493,-0.223 1.903,0.419c0.411,0.641 0.223,1.494 -0.419,1.903c-0.23,0.147 -0.487,0.218 -0.74,0.218c-0.456,-0 -0.901,-0.224 -1.163,-0.637c-0.409,-0.64 -0.223,-1.492 0.419,-1.903Zm-8.117,5.805c0.595,-0.473 1.463,-0.375 1.936,0.22c0.475,0.595 0.377,1.462 -0.219,1.937c-0.253,0.202 -0.556,0.3 -0.857,0.3c-0.406,0 -0.807,-0.178 -1.079,-0.519c-0.474,-0.596 -0.376,-1.463 0.219,-1.938Zm-7.473,6.614c0.542,-0.534 1.415,-0.525 1.948,0.018c0.534,0.542 0.525,1.415 -0.018,1.949c-0.268,0.263 -0.616,0.394 -0.965,0.394c-0.357,0 -0.714,-0.138 -0.984,-0.413c-0.533,-0.542 -0.524,-1.415 0.019,-1.948Zm-6.752,7.348c0.484,-0.586 1.353,-0.668 1.939,-0.183c0.587,0.485 0.669,1.354 0.183,1.941c-0.272,0.329 -0.666,0.498 -1.062,0.498c-0.31,0 -0.621,-0.103 -0.878,-0.316c-0.587,-0.485 -0.668,-1.354 -0.182,-1.94Zm-5.959,8.006c0.423,-0.632 1.278,-0.803 1.911,-0.382c0.633,0.423 0.805,1.279 0.382,1.911c-0.265,0.399 -0.702,0.615 -1.147,0.615c-0.263,-0 -0.529,-0.075 -0.764,-0.231c-0.633,-0.423 -0.805,-1.279 -0.382,-1.913Zm-12.481,27.103c0.206,-0.733 0.967,-1.159 1.701,-0.953c0.732,0.207 1.158,0.967 0.951,1.701c-0.171,0.607 -0.723,1.004 -1.326,1.004c-0.123,-0 -0.249,-0.017 -0.374,-0.051c-0.732,-0.208 -1.158,-0.969 -0.952,-1.701Zm-2.201,9.734c0.128,-0.751 0.841,-1.253 1.592,-1.125c0.749,0.129 1.253,0.842 1.124,1.591c-0.115,0.672 -0.698,1.146 -1.357,1.146c-0.077,-0 -0.156,-0.007 -0.235,-0.021c-0.749,-0.129 -1.253,-0.841 -1.124,-1.591Zm-1.178,9.908c0.051,-0.759 0.708,-1.333 1.468,-1.284c0.76,0.052 1.333,0.708 1.283,1.468c-0.048,0.728 -0.655,1.286 -1.374,1.286c-0.03,-0 -0.062,-0.001 -0.093,-0.003c-0.759,-0.051 -1.334,-0.707 -1.284,-1.467Zm-0.151,9.976c-0.027,-0.76 0.567,-1.399 1.327,-1.427c0.762,-0.027 1.401,0.567 1.427,1.328c0.027,0.762 -0.567,1.4 -1.327,1.427c-0.017,0 -0.034,0.002 -0.05,0.002c-0.739,-0 -1.35,-0.586 -1.377,-1.33Zm2.234,11.126c-0.677,-0 -1.268,-0.498 -1.363,-1.187c-0.105,-0.754 0.42,-1.45 1.173,-1.556c0.755,-0.105 1.45,0.42 1.556,1.173c0.105,0.755 -0.42,1.452 -1.173,1.557c-0.065,0.009 -0.13,0.013 -0.193,0.013Zm2.204,9.615c-0.112,0.029 -0.225,0.042 -0.335,0.042c-0.618,-0 -1.18,-0.42 -1.336,-1.046c-0.182,-0.739 0.266,-1.487 1.005,-1.671c0.739,-0.183 1.486,0.266 1.67,1.006c0.184,0.738 -0.267,1.486 -1.004,1.669Zm3.005,9.367c-0.154,0.057 -0.313,0.084 -0.469,0.084c-0.565,-0 -1.094,-0.35 -1.296,-0.909c-0.26,-0.716 0.109,-1.507 0.824,-1.766c0.716,-0.259 1.506,0.111 1.766,0.826c0.259,0.715 -0.109,1.506 -0.825,1.765Zm1.854,-68.159c-0.216,0.539 -0.733,0.868 -1.28,0.868c-0.171,-0 -0.343,-0.032 -0.511,-0.099c-0.707,-0.281 -1.051,-1.083 -0.769,-1.79c0.282,-0.706 1.083,-1.051 1.79,-0.769c0.708,0.282 1.052,1.083 0.77,1.79Zm2.114,77.16c-0.194,0.096 -0.399,0.14 -0.601,0.14c-0.512,-0 -1.003,-0.284 -1.241,-0.776c-0.333,-0.684 -0.048,-1.509 0.636,-1.841c0.685,-0.333 1.509,-0.049 1.842,0.635c0.334,0.685 0.049,1.51 -0.636,1.842Zm1.942,-85.965c-0.246,0.47 -0.724,0.737 -1.22,0.737c-0.217,0 -0.436,-0.051 -0.641,-0.158c-0.673,-0.355 -0.932,-1.187 -0.578,-1.861c0.354,-0.674 1.187,-0.932 1.861,-0.579c0.674,0.354 0.933,1.188 0.578,1.861Zm2.94,94.505c-0.225,0.141 -0.477,0.208 -0.727,0.208c-0.459,-0 -0.909,-0.23 -1.171,-0.651c-0.402,-0.645 -0.204,-1.495 0.441,-1.898c0.647,-0.402 1.497,-0.204 1.9,0.442c0.401,0.646 0.204,1.496 -0.443,1.899Zm5.742,7.986c-0.25,0.196 -0.548,0.29 -0.844,0.29c-0.41,0 -0.817,-0.182 -1.089,-0.533c-0.467,-0.601 -0.358,-1.465 0.243,-1.933c0.601,-0.467 1.466,-0.358 1.933,0.243c0.467,0.601 0.358,1.466 -0.243,1.933Zm6.536,7.352c-0.266,0.256 -0.61,0.384 -0.952,0.384c-0.363,-0 -0.725,-0.144 -0.995,-0.425c-0.527,-0.551 -0.508,-1.422 0.042,-1.948c0.548,-0.527 1.421,-0.507 1.947,0.042c0.527,0.549 0.508,1.421 -0.042,1.947Zm7.261,6.641c-0.272,0.321 -0.66,0.486 -1.051,0.486c-0.315,0 -0.632,-0.107 -0.892,-0.328c-0.58,-0.493 -0.651,-1.362 -0.158,-1.942c0.492,-0.58 1.362,-0.651 1.942,-0.16c0.58,0.493 0.651,1.363 0.159,1.944Zm7.907,5.854c-0.266,0.39 -0.699,0.6 -1.139,0.6c-0.268,-0 -0.538,-0.078 -0.777,-0.24c-0.627,-0.431 -0.789,-1.289 -0.358,-1.916c0.429,-0.629 1.287,-0.789 1.915,-0.36c0.628,0.431 0.789,1.287 0.359,1.916Zm8.472,5.005c-0.249,0.461 -0.724,0.721 -1.214,0.721c-0.222,0 -0.446,-0.054 -0.655,-0.166c-0.669,-0.363 -0.917,-1.199 -0.555,-1.868c0.363,-0.669 1.199,-0.918 1.868,-0.555c0.669,0.362 0.919,1.198 0.556,1.868Zm8.946,4.096c-0.219,0.53 -0.732,0.851 -1.274,0.851c-0.175,0 -0.353,-0.033 -0.525,-0.104c-0.704,-0.29 -1.038,-1.097 -0.748,-1.8c0.291,-0.703 1.097,-1.038 1.8,-0.747c0.703,0.29 1.037,1.095 0.747,1.8Zm9.325,3.138c-0.176,0.6 -0.726,0.988 -1.32,0.988c-0.129,0 -0.261,-0.018 -0.391,-0.056c-0.73,-0.216 -1.147,-0.982 -0.931,-1.711c0.214,-0.731 0.981,-1.148 1.712,-0.932c0.729,0.214 1.147,0.981 0.93,1.711Zm9.601,2.147c-0.122,0.665 -0.702,1.128 -1.355,1.128c-0.082,-0 -0.166,-0.007 -0.25,-0.023c-0.748,-0.138 -1.243,-0.857 -1.105,-1.606c0.137,-0.747 0.857,-1.242 1.605,-1.104c0.748,0.138 1.243,0.855 1.105,1.605Zm9.77,1.136c-0.057,0.722 -0.66,1.269 -1.372,1.269c-0.036,0 -0.073,-0.001 -0.11,-0.004l0.001,0c-0.76,-0.059 -1.325,-0.722 -1.266,-1.481c0.06,-0.759 0.723,-1.325 1.482,-1.267c0.758,0.061 1.325,0.724 1.265,1.483Zm8.491,1.538l-0.034,-0c-0.745,-0 -1.358,-0.596 -1.376,-1.346c-0.019,-0.761 0.584,-1.392 1.345,-1.411c0.761,-0.018 1.392,0.585 1.411,1.346c0.017,0.76 -0.584,1.393 -1.346,1.411Zm9.949,-0.751c-0.059,0.007 -0.118,0.011 -0.176,0.011c-0.684,0 -1.277,-0.507 -1.366,-1.202c-0.096,-0.756 0.438,-1.446 1.193,-1.544c0.754,-0.095 1.445,0.438 1.541,1.194c0.097,0.755 -0.438,1.445 -1.192,1.541Zm9.82,-1.777c-0.107,0.024 -0.213,0.036 -0.318,0.036c-0.625,-0 -1.19,-0.427 -1.34,-1.061c-0.175,-0.742 0.285,-1.484 1.026,-1.658c0.741,-0.174 1.483,0.285 1.657,1.025c0.174,0.742 -0.285,1.484 -1.025,1.658Zm9.581,-2.794c-0.15,0.053 -0.303,0.078 -0.454,0.078c-0.57,-0 -1.103,-0.355 -1.301,-0.924c-0.251,-0.718 0.127,-1.503 0.847,-1.754c0.717,-0.253 1.503,0.127 1.755,0.847c0.251,0.717 -0.128,1.503 -0.847,1.753Zm9.238,-3.778c-0.19,0.089 -0.39,0.133 -0.586,0.133c-0.517,-0 -1.014,-0.293 -1.249,-0.791c-0.324,-0.688 -0.029,-1.51 0.659,-1.834c0.689,-0.326 1.51,-0.031 1.835,0.659c0.324,0.687 0.029,1.509 -0.659,1.833Zm8.791,-4.719c-0.223,0.134 -0.47,0.199 -0.712,0.199c-0.466,-0 -0.92,-0.236 -1.181,-0.665c-0.395,-0.65 -0.186,-1.496 0.465,-1.891c0.651,-0.394 1.499,-0.187 1.892,0.464c0.395,0.651 0.186,1.498 -0.464,1.893Zm8.256,-5.608c-0.251,0.19 -0.542,0.28 -0.833,0.28c-0.416,0 -0.828,-0.187 -1.098,-0.544c-0.46,-0.608 -0.342,-1.471 0.265,-1.93c0.606,-0.461 1.471,-0.342 1.93,0.264c0.461,0.608 0.342,1.471 -0.264,1.93Zm7.629,-6.428c-0.264,0.249 -0.603,0.37 -0.94,0.37c-0.368,0 -0.736,-0.146 -1.007,-0.436c-0.52,-0.556 -0.491,-1.428 0.066,-1.947c0.556,-0.52 1.427,-0.49 1.947,0.064c0.52,0.557 0.492,1.429 -0.066,1.949Zm6.93,-7.182c-0.274,0.312 -0.657,0.473 -1.042,0.473c-0.32,0 -0.642,-0.112 -0.903,-0.339c-0.574,-0.499 -0.635,-1.369 -0.135,-1.943c0.498,-0.575 1.37,-0.635 1.944,-0.137c0.573,0.501 0.634,1.37 0.136,1.946Zm6.15,-7.861c-0.268,0.382 -0.696,0.586 -1.13,0.586c-0.273,-0 -0.549,-0.082 -0.791,-0.251c-0.621,-0.437 -0.772,-1.296 -0.335,-1.92c0.437,-0.623 1.297,-0.773 1.92,-0.335c0.622,0.437 0.773,1.297 0.336,1.92Zm-78.679,28.851c-37.441,-0 -69.16,-24.499 -80.005,-58.34l160.01,0c-10.844,33.841 -42.562,58.34 -80.005,58.34Zm-36.567,-71.67l2.419,-6.589l0.824,0l2.419,6.589l-0.836,-0l-0.663,-1.866l-2.664,-0l-0.663,1.866l-0.836,-0Zm7.412,-4.157c0.056,-0.085 0.134,-0.195 0.234,-0.329c0.1,-0.134 0.243,-0.255 0.432,-0.361c0.188,-0.106 0.442,-0.159 0.764,-0.159c0.416,0 0.782,0.104 1.1,0.313c0.317,0.207 0.565,0.502 0.742,0.884c0.179,0.382 0.267,0.832 0.267,1.352c-0,0.524 -0.089,0.977 -0.267,1.36c-0.178,0.383 -0.425,0.678 -0.74,0.888c-0.315,0.209 -0.678,0.314 -1.09,0.314c-0.318,-0 -0.573,-0.053 -0.763,-0.159c-0.19,-0.106 -0.337,-0.227 -0.441,-0.363c-0.102,-0.137 -0.182,-0.25 -0.238,-0.34l-0.064,-0l0,2.613l-0.76,-0l0,-6.795l0.734,0l-0,0.785l0.09,0l0,-0.003Zm4.723,-15.374l-0,-0.707l4.942,-0l0,0.707l-2.072,0l0,5.881l-0.798,0l0,-5.881l-2.072,0Zm0.708,14.59l0,0.784l0.091,0c0.055,-0.085 0.134,-0.195 0.234,-0.329c0.099,-0.134 0.242,-0.255 0.431,-0.361c0.188,-0.106 0.443,-0.159 0.764,-0.159c0.416,0 0.783,0.104 1.1,0.313c0.318,0.207 0.566,0.502 0.743,0.884c0.178,0.382 0.266,0.832 0.266,1.352c0,0.524 -0.089,0.977 -0.266,1.36c-0.178,0.383 -0.425,0.678 -0.74,0.888c-0.315,0.209 -0.679,0.314 -1.091,0.314c-0.317,-0 -0.572,-0.053 -0.762,-0.159c-0.191,-0.106 -0.338,-0.227 -0.441,-0.363c-0.103,-0.137 -0.183,-0.25 -0.238,-0.34l-0.064,-0l-0,2.613l-0.76,-0l-0,-6.795l0.733,0l0,-0.002Zm10.874,-12.865c0.055,-0.086 0.134,-0.196 0.234,-0.33c0.1,-0.134 0.243,-0.254 0.432,-0.361c0.187,-0.106 0.442,-0.158 0.763,-0.158c0.417,-0 0.783,0.103 1.1,0.312c0.318,0.209 0.566,0.503 0.743,0.885c0.179,0.382 0.267,0.832 0.267,1.351c-0,0.524 -0.09,0.977 -0.267,1.36c-0.178,0.383 -0.425,0.679 -0.74,0.889c-0.315,0.208 -0.679,0.313 -1.091,0.313c-0.317,0 -0.572,-0.052 -0.762,-0.158c-0.191,-0.107 -0.338,-0.228 -0.441,-0.364c-0.103,-0.137 -0.183,-0.249 -0.238,-0.34l-0.064,0l-0,2.613l-0.76,0l-0,-6.795l0.734,0l-0,0.785l0.09,0l0,-0.002Zm4.081,11.216l-0,6.589l-0.798,-0l-0,-6.589l0.798,0Zm-4.01,5.745c0.264,-0.143 0.466,-0.339 0.606,-0.59c0.141,-0.249 0.212,-0.535 0.212,-0.857l-0,-4.298l0.798,0l-0,4.363c-0,0.45 -0.107,0.851 -0.318,1.204c-0.211,0.354 -0.509,0.631 -0.892,0.834c-0.385,0.202 -0.835,0.304 -1.352,0.304c-0.517,0 -0.968,-0.101 -1.352,-0.304c-0.385,-0.202 -0.681,-0.48 -0.893,-0.834c-0.211,-0.353 -0.316,-0.754 -0.316,-1.204l0,-4.363l0.798,0l0,4.298c0,0.322 0.071,0.608 0.213,0.857c0.142,0.25 0.344,0.447 0.606,0.59c0.263,0.143 0.578,0.214 0.944,0.214c0.366,-0 0.682,-0.071 0.946,-0.214Zm-2.334,-13.911c-0.187,0.382 -0.448,0.678 -0.784,0.891c-0.336,0.213 -0.727,0.319 -1.174,0.319c-0.446,0 -0.837,-0.106 -1.173,-0.319c-0.336,-0.213 -0.597,-0.509 -0.785,-0.891c-0.187,-0.382 -0.282,-0.828 -0.282,-1.339c-0,-0.514 0.093,-0.964 0.282,-1.348c0.188,-0.383 0.449,-0.682 0.785,-0.894c0.336,-0.212 0.727,-0.318 1.173,-0.318c0.447,-0 0.838,0.106 1.174,0.318c0.336,0.213 0.597,0.511 0.784,0.894c0.188,0.385 0.283,0.834 0.283,1.348c-0.002,0.511 -0.095,0.957 -0.283,1.339Zm14.335,1.106l-0.926,0l-1.39,-2.577c-0.055,0.002 -0.11,0.004 -0.168,0.004l-1.441,-0l-0,2.573l-0.798,0l-0,-6.588l2.226,-0c0.514,-0 0.937,0.088 1.267,0.262c0.331,0.175 0.575,0.415 0.734,0.719c0.159,0.305 0.238,0.651 0.238,1.04c-0,0.389 -0.08,0.732 -0.238,1.033c-0.157,0.3 -0.402,0.535 -0.73,0.706c-0.081,0.042 -0.169,0.08 -0.262,0.112l1.488,2.716Zm3.666,-4.074c-0.172,-0.175 -0.433,-0.263 -0.784,-0.263c-0.362,-0 -0.647,0.078 -0.853,0.237c-0.206,0.159 -0.35,0.328 -0.434,0.508l-0.721,-0.257c0.129,-0.301 0.301,-0.534 0.517,-0.704c0.216,-0.168 0.452,-0.286 0.708,-0.354c0.256,-0.068 0.509,-0.101 0.757,-0.101c0.159,-0 0.341,0.018 0.549,0.056c0.207,0.039 0.407,0.115 0.601,0.23c0.194,0.116 0.356,0.29 0.484,0.525c0.129,0.235 0.193,0.547 0.193,0.94l0,3.256l-0.76,0l0,-0.669l-0.038,-0c-0.051,0.107 -0.136,0.222 -0.257,0.343c-0.121,0.123 -0.28,0.226 -0.479,0.313c-0.2,0.087 -0.444,0.129 -0.73,0.129c-0.314,-0 -0.597,-0.06 -0.853,-0.179c-0.256,-0.119 -0.458,-0.291 -0.608,-0.518c-0.149,-0.226 -0.225,-0.5 -0.225,-0.822c-0,-0.283 0.055,-0.513 0.168,-0.69c0.111,-0.177 0.259,-0.317 0.447,-0.416c0.188,-0.1 0.394,-0.176 0.62,-0.227c0.225,-0.05 0.454,-0.091 0.683,-0.121c0.301,-0.038 0.545,-0.068 0.733,-0.088c0.187,-0.021 0.325,-0.055 0.412,-0.105c0.086,-0.05 0.13,-0.135 0.13,-0.257l-0,-0.027c-0.001,-0.316 -0.087,-0.563 -0.26,-0.739Zm3.206,-0.095c0.116,-0.251 0.292,-0.453 0.528,-0.607c0.236,-0.153 0.541,-0.229 0.913,-0.229c0.335,-0 0.628,0.068 0.878,0.204c0.251,0.137 0.447,0.343 0.586,0.619c0.139,0.275 0.208,0.623 0.208,1.043l0,3.141l-0.759,-0l-0,-3.09c-0,-0.388 -0.102,-0.692 -0.302,-0.909c-0.202,-0.218 -0.478,-0.327 -0.83,-0.327c-0.243,-0 -0.458,0.052 -0.648,0.157c-0.19,0.105 -0.34,0.259 -0.449,0.461c-0.109,0.202 -0.164,0.446 -0.164,0.734l-0,2.972l-0.76,0l-0,-4.941l0.734,-0l-0,0.772l0.065,-0Zm1.867,14.649c0.136,0.109 0.351,0.201 0.643,0.273l0.733,0.18c0.443,0.108 0.772,0.271 0.989,0.491c0.216,0.219 0.325,0.503 0.325,0.848c0,0.283 -0.081,0.537 -0.243,0.76c-0.161,0.223 -0.387,0.399 -0.677,0.527c-0.29,0.129 -0.626,0.193 -1.011,0.193c-0.503,0 -0.921,-0.109 -1.252,-0.328c-0.33,-0.219 -0.539,-0.538 -0.627,-0.959l0.721,-0.18c0.068,0.266 0.199,0.466 0.391,0.598c0.191,0.133 0.443,0.2 0.754,0.2c0.355,-0 0.636,-0.076 0.846,-0.227c0.208,-0.151 0.313,-0.333 0.313,-0.545c0,-0.172 -0.06,-0.316 -0.179,-0.433c-0.121,-0.117 -0.305,-0.205 -0.554,-0.262l-0.825,-0.193c-0.452,-0.108 -0.784,-0.275 -0.996,-0.5c-0.211,-0.226 -0.317,-0.511 -0.317,-0.851c-0,-0.278 0.078,-0.525 0.236,-0.74c0.157,-0.214 0.373,-0.383 0.647,-0.505c0.273,-0.122 0.584,-0.184 0.932,-0.184c0.489,-0 0.874,0.107 1.153,0.321c0.28,0.214 0.479,0.498 0.598,0.85l-0.683,0.192c-0.043,-0.114 -0.105,-0.224 -0.188,-0.333c-0.082,-0.107 -0.194,-0.198 -0.336,-0.269c-0.141,-0.071 -0.322,-0.106 -0.543,-0.106c-0.302,-0 -0.554,0.069 -0.755,0.207c-0.2,0.138 -0.3,0.314 -0.3,0.527c-0.002,0.19 0.067,0.339 0.205,0.448Zm3.487,-13.221l2.161,-2.201l0.94,-0l-2.088,2.111l2.242,2.831l-0.965,0l-1.849,-2.341l-0.532,0.492l0,1.849l-0.76,0l0,-6.588l0.76,-0l0,3.848l0.091,-0l-0,-0.001Zm4.596,1.372c0.13,0.259 0.311,0.455 0.542,0.59c0.232,0.134 0.501,0.201 0.807,0.201c0.2,-0 0.381,-0.029 0.542,-0.086c0.162,-0.056 0.302,-0.143 0.42,-0.257c0.118,-0.114 0.209,-0.259 0.273,-0.429l0.734,0.206c-0.078,0.249 -0.207,0.467 -0.39,0.655c-0.182,0.188 -0.408,0.333 -0.676,0.437c-0.268,0.104 -0.569,0.156 -0.904,0.156c-0.477,0 -0.886,-0.106 -1.231,-0.318c-0.344,-0.211 -0.609,-0.506 -0.794,-0.888c-0.185,-0.381 -0.278,-0.824 -0.278,-1.331c-0,-0.507 0.093,-0.953 0.278,-1.34c0.185,-0.387 0.445,-0.689 0.778,-0.907c0.333,-0.218 0.723,-0.327 1.169,-0.327c0.258,0 0.512,0.044 0.763,0.129c0.251,0.085 0.479,0.224 0.685,0.416c0.206,0.192 0.37,0.446 0.492,0.761c0.122,0.315 0.184,0.704 0.184,1.164l-0,0.322l-3.586,-0c0.012,0.329 0.074,0.613 0.192,0.846Zm-0.22,10.013c0.321,0 0.577,0.053 0.767,0.159c0.191,0.106 0.336,0.226 0.437,0.361c0.103,0.134 0.182,0.244 0.237,0.329l0.077,0l0,-0.784l0.734,-0l-0,5.083c-0,0.425 -0.096,0.77 -0.288,1.038c-0.191,0.266 -0.449,0.463 -0.771,0.589c-0.323,0.126 -0.682,0.188 -1.077,0.188c-0.366,-0 -0.682,-0.047 -0.946,-0.141c-0.264,-0.093 -0.483,-0.215 -0.658,-0.366c-0.174,-0.151 -0.313,-0.312 -0.416,-0.484l0.605,-0.425c0.069,0.09 0.157,0.193 0.262,0.311c0.105,0.116 0.249,0.219 0.433,0.306c0.184,0.086 0.424,0.129 0.722,0.129c0.399,0 0.728,-0.097 0.988,-0.29c0.26,-0.193 0.39,-0.496 0.39,-0.906l-0,-1.005l-0.065,0c-0.055,0.091 -0.135,0.201 -0.236,0.334c-0.101,0.132 -0.248,0.249 -0.437,0.35c-0.19,0.103 -0.446,0.154 -0.768,0.154c-0.399,-0 -0.756,-0.095 -1.072,-0.284c-0.316,-0.189 -0.566,-0.463 -0.749,-0.824c-0.184,-0.361 -0.276,-0.798 -0.276,-1.312c0,-0.507 0.089,-0.948 0.266,-1.325c0.178,-0.376 0.426,-0.668 0.743,-0.875c0.314,-0.207 0.681,-0.31 1.098,-0.31Zm-3.643,-0.76c-0.148,0 -0.275,-0.05 -0.38,-0.151c-0.106,-0.101 -0.159,-0.221 -0.159,-0.363c0,-0.142 0.053,-0.263 0.159,-0.364c0.106,-0.101 0.233,-0.151 0.38,-0.151c0.149,0 0.276,0.05 0.382,0.151c0.107,0.101 0.159,0.222 0.159,0.364c0,0.142 -0.052,0.262 -0.159,0.363c-0.107,0.101 -0.233,0.151 -0.382,0.151Zm0.373,0.825l0,4.941l-0.76,-0l0,-4.941l0.76,-0Zm-6.836,1.241c0.122,0.315 0.183,0.704 0.183,1.164l0,0.322l-3.585,-0c0.012,0.328 0.072,0.61 0.19,0.844c0.13,0.258 0.311,0.454 0.542,0.589c0.232,0.134 0.501,0.201 0.807,0.201c0.2,-0 0.381,-0.029 0.542,-0.085c0.162,-0.057 0.302,-0.144 0.42,-0.258c0.118,-0.114 0.209,-0.257 0.273,-0.429l0.734,0.206c-0.078,0.25 -0.208,0.467 -0.39,0.655c-0.182,0.188 -0.408,0.333 -0.676,0.437c-0.268,0.104 -0.569,0.156 -0.904,0.156c-0.477,0 -0.886,-0.105 -1.231,-0.316c-0.345,-0.211 -0.609,-0.508 -0.794,-0.889c-0.185,-0.38 -0.279,-0.824 -0.279,-1.33c0,-0.507 0.094,-0.953 0.279,-1.34c0.185,-0.388 0.445,-0.689 0.778,-0.907c0.333,-0.218 0.723,-0.327 1.169,-0.327c0.258,-0 0.512,0.043 0.763,0.128c0.251,0.086 0.479,0.225 0.685,0.417c0.207,0.193 0.371,0.447 0.494,0.762Zm-5.534,-1.366c0.243,0.489 0.364,1.076 0.364,1.759c-0,0.686 -0.122,1.277 -0.366,1.771c-0.244,0.495 -0.602,0.875 -1.069,1.14c-0.467,0.265 -1.035,0.397 -1.705,0.397l-2.033,0l0,-6.588l2.124,-0c0.639,-0 1.186,0.131 1.641,0.393c0.454,0.263 0.801,0.638 1.044,1.128Zm20.08,0.896c0.115,-0.25 0.291,-0.453 0.527,-0.606c0.236,-0.154 0.54,-0.23 0.913,-0.23c0.336,0 0.629,0.068 0.879,0.205c0.25,0.136 0.446,0.343 0.585,0.618c0.139,0.276 0.209,0.623 0.209,1.044l-0,3.14l-0.76,0l-0,-3.089c-0,-0.389 -0.101,-0.692 -0.302,-0.909c-0.202,-0.217 -0.478,-0.326 -0.83,-0.326c-0.243,-0 -0.458,0.052 -0.648,0.157c-0.19,0.105 -0.339,0.259 -0.449,0.46c-0.109,0.202 -0.164,0.446 -0.164,0.733l0,2.973l-0.76,-0l0,-4.941l0.734,-0l0,0.771l0.066,0Zm5.226,2.801c0.129,0.259 0.311,0.454 0.542,0.589c0.232,0.134 0.501,0.201 0.807,0.201c0.2,0 0.38,-0.029 0.542,-0.085c0.162,-0.057 0.301,-0.143 0.42,-0.257c0.118,-0.115 0.209,-0.258 0.272,-0.43l0.735,0.207c-0.078,0.249 -0.208,0.467 -0.39,0.654c-0.182,0.188 -0.408,0.334 -0.676,0.437c-0.267,0.104 -0.569,0.157 -0.905,0.157c-0.476,-0 -0.885,-0.105 -1.231,-0.317c-0.344,-0.211 -0.609,-0.508 -0.793,-0.888c-0.186,-0.381 -0.279,-0.824 -0.279,-1.331c-0,-0.507 0.093,-0.953 0.279,-1.34c0.184,-0.387 0.445,-0.689 0.778,-0.907c0.333,-0.218 0.724,-0.327 1.169,-0.327c0.258,0 0.512,0.043 0.762,0.129c0.252,0.085 0.48,0.224 0.686,0.416c0.206,0.192 0.37,0.446 0.493,0.761c0.121,0.315 0.183,0.704 0.183,1.164l-0,0.322l-3.586,-0c0.013,0.328 0.073,0.611 0.192,0.845Zm-0.761,-12.281l-0.734,0l-0,-0.76l-0.091,0c-0.055,0.091 -0.135,0.204 -0.237,0.34c-0.102,0.137 -0.249,0.258 -0.441,0.364c-0.19,0.106 -0.446,0.159 -0.763,0.159c-0.412,-0 -0.776,-0.105 -1.09,-0.314c-0.315,-0.209 -0.562,-0.505 -0.741,-0.888c-0.178,-0.384 -0.266,-0.837 -0.266,-1.36c0,-0.519 0.089,-0.97 0.266,-1.352c0.179,-0.382 0.426,-0.677 0.743,-0.885c0.318,-0.207 0.684,-0.312 1.1,-0.312c0.322,-0 0.576,0.052 0.763,0.159c0.189,0.106 0.333,0.226 0.433,0.361c0.099,0.134 0.177,0.244 0.233,0.329l0.065,0l-0,-2.432l0.76,0l-0,6.591Zm6.099,9.454c0.092,-0.244 0.255,-0.444 0.491,-0.596c0.236,-0.152 0.5,-0.228 0.797,-0.228c0.056,-0 0.127,0.001 0.209,0.002c0.084,0.003 0.147,0.006 0.19,0.01l-0,0.771c-0.026,-0.006 -0.084,-0.017 -0.176,-0.03c-0.09,-0.014 -0.187,-0.021 -0.287,-0.021c-0.24,0 -0.455,0.05 -0.642,0.15c-0.187,0.1 -0.335,0.237 -0.444,0.412c-0.108,0.174 -0.162,0.374 -0.162,0.597l-0,3.128l-0.76,-0l-0,-4.942l0.734,0l0,0.747l0.05,-0Zm5.212,2.424c-0.12,-0.117 -0.303,-0.205 -0.553,-0.262l-0.825,-0.193c-0.452,-0.108 -0.785,-0.275 -0.996,-0.5c-0.211,-0.226 -0.318,-0.511 -0.318,-0.851c0,-0.278 0.079,-0.525 0.237,-0.74c0.157,-0.214 0.372,-0.383 0.647,-0.505c0.273,-0.122 0.584,-0.184 0.932,-0.184c0.489,-0 0.873,0.107 1.153,0.321c0.281,0.214 0.479,0.498 0.598,0.85l-0.683,0.192c-0.044,-0.114 -0.104,-0.224 -0.187,-0.333c-0.084,-0.107 -0.195,-0.198 -0.337,-0.269c-0.141,-0.071 -0.322,-0.106 -0.543,-0.106c-0.302,-0 -0.553,0.069 -0.755,0.207c-0.2,0.138 -0.3,0.314 -0.3,0.527c-0,0.188 0.068,0.337 0.206,0.447c0.137,0.109 0.352,0.201 0.643,0.273l0.734,0.18c0.443,0.107 0.772,0.27 0.988,0.491c0.217,0.219 0.326,0.502 0.326,0.848c-0,0.283 -0.082,0.536 -0.243,0.759c-0.161,0.224 -0.387,0.399 -0.677,0.528c-0.291,0.129 -0.626,0.193 -1.011,0.193c-0.504,-0 -0.921,-0.109 -1.251,-0.328c-0.332,-0.219 -0.541,-0.538 -0.629,-0.96l0.721,-0.179c0.069,0.266 0.199,0.466 0.391,0.598c0.191,0.133 0.444,0.2 0.755,0.2c0.354,-0 0.635,-0.076 0.845,-0.227c0.208,-0.151 0.314,-0.334 0.314,-0.545c-0.001,-0.171 -0.062,-0.314 -0.182,-0.432Zm-117.269,-32.015c9.484,-35.995 42.256,-62.538 81.229,-62.538c38.974,-0 71.747,26.543 81.23,62.538l-162.459,0Zm165.212,68.15c-0.253,0.453 -0.721,0.709 -1.205,0.709c-0.227,-0 -0.457,-0.057 -0.67,-0.175c-0.664,-0.371 -0.903,-1.21 -0.533,-1.876c0.371,-0.664 1.211,-0.903 1.874,-0.533c0.666,0.372 0.904,1.211 0.534,1.875Zm0.947,-85.41c-0.316,-0.692 -0.01,-1.509 0.682,-1.826c0.693,-0.316 1.509,-0.01 1.825,0.682c0.317,0.691 0.012,1.509 -0.68,1.827c-0.187,0.084 -0.38,0.124 -0.572,0.124c-0.523,0 -1.024,-0.299 -1.255,-0.807Zm3.451,76.45c-0.225,0.523 -0.735,0.836 -1.269,0.836c-0.18,0 -0.365,-0.036 -0.54,-0.112c-0.701,-0.299 -1.025,-1.109 -0.726,-1.808c0.3,-0.701 1.109,-1.026 1.808,-0.726c0.7,0.299 1.026,1.109 0.727,1.81Zm0.109,-67.435c-0.242,-0.721 0.146,-1.502 0.867,-1.744c0.723,-0.243 1.504,0.146 1.745,0.868c0.243,0.722 -0.146,1.502 -0.867,1.745c-0.146,0.049 -0.294,0.072 -0.439,0.072c-0.575,0 -1.112,-0.365 -1.306,-0.941Zm3.329,58.062c-0.184,0.592 -0.729,0.973 -1.318,0.973c-0.133,-0 -0.27,-0.021 -0.405,-0.062c-0.728,-0.225 -1.136,-0.996 -0.911,-1.723c0.224,-0.728 0.994,-1.135 1.723,-0.911c0.727,0.225 1.133,0.996 0.911,1.723Zm2.438,-9.679c-0.128,0.656 -0.706,1.112 -1.35,1.112c-0.087,-0 -0.179,-0.01 -0.268,-0.027c-0.746,-0.147 -1.232,-0.871 -1.085,-1.618c0.147,-0.747 0.872,-1.234 1.618,-1.087c0.747,0.149 1.232,0.873 1.085,1.62Zm1.418,-9.878c-0.066,0.716 -0.667,1.254 -1.372,1.254c-0.041,-0 -0.082,-0.003 -0.126,-0.007c-0.756,-0.068 -1.316,-0.739 -1.248,-1.496c0.07,-0.759 0.741,-1.316 1.498,-1.248c0.759,0.068 1.316,0.739 1.248,1.497Z" style="fill:#fff;fill-rule:nonzero;"/><path d="M138.012,147.716c0.21,0.16 0.467,0.241 0.772,0.241c0.318,-0 0.583,-0.084 0.797,-0.252c0.213,-0.168 0.374,-0.397 0.483,-0.683c0.109,-0.286 0.162,-0.605 0.162,-0.957c0,-0.348 -0.052,-0.661 -0.158,-0.941c-0.107,-0.279 -0.267,-0.501 -0.48,-0.665c-0.214,-0.164 -0.48,-0.247 -0.803,-0.247c-0.308,0 -0.568,0.078 -0.778,0.234c-0.21,0.156 -0.369,0.372 -0.476,0.649c-0.108,0.279 -0.162,0.602 -0.162,0.97c0,0.373 0.055,0.702 0.164,0.986c0.109,0.283 0.269,0.505 0.479,0.665Z" style="fill:#fff;fill-rule:nonzero;"/><path d="M148.475,143.967c0,-0.264 -0.05,-0.495 -0.148,-0.692c-0.099,-0.197 -0.256,-0.35 -0.473,-0.458c-0.216,-0.109 -0.502,-0.163 -0.859,-0.163l-1.403,0l-0,2.587l1.416,0c0.352,0 0.635,-0.051 0.85,-0.155c0.216,-0.102 0.372,-0.249 0.47,-0.439c0.097,-0.189 0.147,-0.417 0.147,-0.68Z" style="fill:#fff;fill-rule:nonzero;"/><path d="M164.767,159.675c-0,0.344 0.053,0.646 0.162,0.91c0.109,0.264 0.269,0.469 0.483,0.618c0.214,0.15 0.479,0.223 0.797,0.223c0.305,0 0.562,-0.069 0.772,-0.208c0.21,-0.139 0.37,-0.34 0.479,-0.601c0.109,-0.262 0.164,-0.575 0.164,-0.94c-0,-0.356 -0.054,-0.671 -0.162,-0.942c-0.107,-0.274 -0.266,-0.486 -0.476,-0.641c-0.21,-0.155 -0.47,-0.231 -0.778,-0.231c-0.322,0 -0.59,0.081 -0.803,0.244c-0.214,0.163 -0.373,0.382 -0.479,0.656c-0.106,0.273 -0.159,0.578 -0.159,0.912Z" style="fill:#fff;fill-rule:nonzero;"/><path d="M152.859,146.236c-0.141,0.022 -0.277,0.042 -0.408,0.058c-0.133,0.015 -0.239,0.028 -0.321,0.04c-0.197,0.027 -0.38,0.067 -0.552,0.124c-0.171,0.056 -0.307,0.141 -0.412,0.254c-0.104,0.113 -0.157,0.265 -0.157,0.458c0,0.264 0.099,0.464 0.295,0.598c0.195,0.133 0.444,0.2 0.748,0.2c0.3,0 0.553,-0.059 0.761,-0.177c0.207,-0.118 0.363,-0.27 0.47,-0.457c0.106,-0.186 0.159,-0.383 0.159,-0.589l-0,-0.694c-0.033,0.038 -0.103,0.073 -0.212,0.105c-0.107,0.031 -0.231,0.058 -0.371,0.08Z" style="fill:#fff;fill-rule:nonzero;"/><path d="M154.788,158.051c-0.202,-0.126 -0.441,-0.191 -0.717,-0.191c-0.301,0 -0.563,0.075 -0.783,0.224c-0.221,0.149 -0.389,0.342 -0.507,0.58c-0.101,0.203 -0.156,0.421 -0.17,0.649l2.812,0c0,-0.278 -0.055,-0.527 -0.165,-0.746c-0.11,-0.22 -0.267,-0.39 -0.47,-0.516Z" style="fill:#fff;fill-rule:nonzero;"/><path d="M116.585,156.638l-0.053,0l-1.055,2.973l2.163,0l-1.055,-2.973Z" style="fill:#fff;fill-rule:nonzero;"/><path d="M121.706,161.366c0.21,0.16 0.467,0.24 0.772,0.24c0.317,0 0.583,-0.084 0.797,-0.252c0.214,-0.168 0.374,-0.395 0.483,-0.682c0.108,-0.286 0.162,-0.605 0.162,-0.957c0,-0.348 -0.052,-0.662 -0.159,-0.941c-0.106,-0.28 -0.266,-0.502 -0.479,-0.666c-0.213,-0.164 -0.48,-0.246 -0.803,-0.246c-0.308,-0 -0.568,0.077 -0.778,0.233c-0.21,0.155 -0.369,0.372 -0.477,0.65c-0.107,0.278 -0.161,0.601 -0.161,0.97c0,0.373 0.055,0.702 0.164,0.986c0.109,0.283 0.269,0.505 0.479,0.665Z" style="fill:#fff;fill-rule:nonzero;"/><path d="M127.228,161.366c0.21,0.16 0.467,0.24 0.771,0.24c0.318,0 0.583,-0.084 0.797,-0.252c0.214,-0.168 0.374,-0.395 0.483,-0.682c0.109,-0.286 0.163,-0.605 0.163,-0.957c-0,-0.348 -0.053,-0.662 -0.159,-0.941c-0.106,-0.28 -0.266,-0.502 -0.479,-0.666c-0.214,-0.164 -0.48,-0.246 -0.803,-0.246c-0.309,-0 -0.569,0.077 -0.779,0.233c-0.21,0.155 -0.368,0.372 -0.476,0.65c-0.108,0.278 -0.161,0.601 -0.161,0.97c-0,0.373 0.055,0.702 0.164,0.986c0.109,0.283 0.269,0.505 0.479,0.665Z" style="fill:#fff;fill-rule:nonzero;"/><path d="M134.06,144.475c-0.219,-0.176 -0.497,-0.264 -0.836,-0.264c-0.338,-0 -0.618,0.088 -0.836,0.264c-0.219,0.175 -0.38,0.406 -0.485,0.691c-0.105,0.285 -0.158,0.594 -0.158,0.924c0,0.331 0.053,0.637 0.158,0.92c0.105,0.284 0.266,0.512 0.485,0.685c0.219,0.174 0.498,0.262 0.836,0.262c0.339,-0 0.618,-0.087 0.836,-0.262c0.219,-0.173 0.381,-0.401 0.486,-0.685c0.105,-0.283 0.158,-0.589 0.158,-0.92c-0,-0.33 -0.053,-0.638 -0.158,-0.924c-0.104,-0.285 -0.267,-0.516 -0.486,-0.691Z" style="fill:#fff;fill-rule:nonzero;"/><path d="M149.032,156.614c-0.346,-0.208 -0.776,-0.312 -1.291,-0.312l-1.274,0l0,5.174l1.184,0c0.545,0 0.996,-0.105 1.354,-0.315c0.359,-0.21 0.625,-0.509 0.801,-0.898c0.176,-0.388 0.264,-0.85 0.264,-1.387c-0,-0.531 -0.087,-0.991 -0.261,-1.375c-0.174,-0.384 -0.432,-0.68 -0.777,-0.887Z" style="fill:#fff;fill-rule:nonzero;"/><path d="M173.641,144.444c-0.211,-0.154 -0.47,-0.233 -0.779,-0.233c-0.322,-0 -0.589,0.081 -0.803,0.247c-0.215,0.164 -0.373,0.385 -0.479,0.665c-0.107,0.279 -0.159,0.593 -0.159,0.941c0,0.352 0.053,0.671 0.163,0.957c0.108,0.286 0.268,0.513 0.482,0.682c0.215,0.168 0.479,0.252 0.798,0.252c0.304,0 0.561,-0.08 0.771,-0.24c0.209,-0.16 0.371,-0.382 0.479,-0.665c0.109,-0.285 0.164,-0.613 0.164,-0.986c0,-0.369 -0.054,-0.692 -0.161,-0.97c-0.107,-0.278 -0.267,-0.495 -0.476,-0.65Z" style="fill:#fff;fill-rule:nonzero;"/><path d="M168.327,144.401c-0.202,-0.126 -0.441,-0.19 -0.716,-0.19c-0.302,-0 -0.563,0.075 -0.784,0.223c-0.22,0.149 -0.388,0.342 -0.506,0.58c-0.101,0.203 -0.156,0.421 -0.171,0.65l2.813,-0c-0,-0.279 -0.055,-0.528 -0.166,-0.747c-0.111,-0.217 -0.268,-0.39 -0.47,-0.516Z" style="fill:#fff;fill-rule:nonzero;"/><path d="M177.774,158.051c-0.203,-0.126 -0.442,-0.191 -0.718,-0.191c-0.302,0 -0.562,0.075 -0.783,0.224c-0.221,0.149 -0.389,0.342 -0.506,0.58c-0.102,0.203 -0.157,0.421 -0.172,0.649l2.813,0c0,-0.278 -0.055,-0.527 -0.165,-0.746c-0.111,-0.22 -0.268,-0.39 -0.469,-0.516Z" style="fill:#fff;fill-rule:nonzero;"/></svg>